<svg width="122" height="78" viewBox="0 0 122 78" fill="none" xmlns="http://www.w3.org/2000/svg">
<g opacity="0.03">
<path opacity="0.75" d="M93.2442 53.1032C91.5075 54.8334 90.1776 56.9216 89.3491 59.2186C88.5205 61.5159 88.214 63.9658 88.4509 66.3938L88.3684 66.3122C88.6122 69.1704 88.2227 72.0463 87.2278 74.7403C86.2329 77.4338 84.6565 79.88 82.6086 81.9083C80.5602 83.9362 78.0897 85.4976 75.369 86.4822C72.6488 87.4673 69.7439 87.853 66.8578 87.6116L66.9403 87.6933C63.4878 87.3752 60.0202 88.1189 57.0099 89.8237C54 91.5285 51.5942 94.1108 50.1209 97.2191C48.6476 100.327 48.1779 103.809 48.7764 107.192C49.3753 110.574 51.0127 113.691 53.4657 116.117C55.9188 118.544 59.0679 120.163 62.4837 120.752C65.9001 121.342 69.4163 120.874 72.5539 119.412C75.6916 117.95 78.2973 115.566 80.0162 112.584C81.7351 109.602 82.4835 106.168 82.159 102.749L82.2461 102.831C82.0023 99.9729 82.3913 97.0966 83.3862 94.4026C84.3811 91.7091 85.958 89.2629 88.0059 87.2346C90.0543 85.2067 92.5248 83.6453 95.245 82.6607C97.9657 81.6756 100.87 81.2899 103.757 81.5313L103.67 81.4496C106.49 81.7005 109.329 81.2427 111.923 80.1183C114.517 78.9938 116.782 77.2392 118.509 75.0171C120.236 72.795 121.368 70.1768 121.801 67.4062C122.234 64.6351 121.954 61.8009 120.986 59.1655C120.018 56.5305 118.394 54.18 116.264 52.3319C114.135 50.4837 111.569 49.1977 108.803 48.5933C106.038 47.9889 103.164 48.0851 100.446 48.8733C97.7288 49.6619 95.2565 51.1167 93.258 53.1032H93.2442Z" fill="#333333"/>
<path opacity="0.45" d="M59.4364 76.9944L59.3493 76.9127C61.8023 77.1573 64.2797 76.8592 66.6026 76.0397C68.925 75.2202 71.0348 73.9002 72.779 72.1746C74.5226 70.4489 75.858 68.3607 76.687 66.0615C77.5164 63.7623 77.8193 61.3097 77.5742 58.8803L77.6612 58.962C77.4174 56.1038 77.807 53.2278 78.8014 50.5339C79.7962 47.8404 81.3731 45.3941 83.4211 43.3658C85.4695 41.338 87.9399 39.7766 90.6601 38.7919C93.3808 37.8066 96.2852 37.4213 99.1718 37.6625L99.0847 37.5809C102.538 37.9021 106.006 37.1605 109.018 35.4577C112.03 33.7549 114.438 31.1736 115.913 28.066C117.389 24.9584 117.86 21.4756 117.264 18.0928C116.667 14.71 115.031 11.5918 112.579 9.16358C110.126 6.73538 106.977 5.11528 103.561 4.52439C100.145 3.93346 96.6276 4.40043 93.489 5.86162C90.3504 7.32277 87.7438 9.70705 86.024 12.6892C84.3041 15.6713 83.5553 19.1061 83.8798 22.5251L83.7973 22.4389C84.0415 25.2971 83.6529 28.1736 82.6585 30.8677C81.6641 33.5618 80.0872 36.0084 78.0393 38.0369C75.9909 40.0647 73.52 41.6261 70.7993 42.6108C68.0782 43.5954 65.1733 43.9802 62.2867 43.7384L62.3692 43.8246C59.9162 43.58 57.4384 43.8781 55.1159 44.6976C52.7935 45.5167 50.6837 46.8371 48.9395 48.5627C47.1954 50.2884 45.8605 52.3766 45.0311 54.6758C44.2021 56.975 43.8992 59.4276 44.1443 61.857L44.0618 61.7753C44.3047 64.6331 43.9147 67.509 42.9199 70.2025C41.9245 72.8956 40.3481 75.3418 38.3002 77.3697C36.252 79.3975 33.7819 80.9584 31.0618 81.944C28.3418 82.9291 25.4374 83.3153 22.5513 83.0748L22.6337 83.1564C19.1809 82.8352 15.712 83.5766 12.7003 85.2796C9.68863 86.9825 7.28072 89.5635 5.80508 92.6713C4.32941 95.7791 3.85777 99.2617 4.45456 102.644C5.05134 106.027 6.6875 109.146 9.13977 111.574C11.5921 114.002 14.7411 115.622 18.1575 116.213C21.5738 116.804 25.0911 116.337 28.2296 114.876C31.368 113.414 33.9749 111.03 35.6945 108.048C37.4144 105.066 38.1632 101.631 37.8387 98.2122L37.9258 98.2939C37.682 95.4356 38.0715 92.5597 39.0664 89.8657C40.0608 87.1722 41.6377 84.726 43.6856 82.6977C45.734 80.6698 48.2045 79.1085 50.9247 78.1238C53.6454 77.1387 56.5498 76.753 59.4364 76.9944Z" fill="#333333"/>
<path opacity="0.8" d="M28.7322 67.8868C30.4691 66.1571 31.7989 64.0689 32.6267 61.7715C33.4545 59.4741 33.7599 57.0238 33.521 54.5962L33.6081 54.6779C33.3643 51.8192 33.7536 48.9419 34.749 46.2475C35.7444 43.553 37.3218 41.1064 39.3711 39.0781C41.4205 37.0499 43.8918 35.489 46.6134 34.5045C49.335 33.5201 52.2408 33.1357 55.1278 33.3784L55.0408 33.2967C58.4924 33.6169 61.96 32.8751 64.9703 31.1724C67.9806 29.4698 70.3869 26.8891 71.862 23.7824C73.3367 20.6757 73.8078 17.1943 73.2111 13.8127C72.6145 10.4312 70.9785 7.31419 68.5273 4.88685C66.0761 2.45951 62.9278 0.839956 59.5129 0.249071C56.098 -0.34186 52.5818 0.124695 49.4445 1.58498C46.3069 3.04527 43.7008 5.42828 41.9814 8.40903C40.2615 11.3898 39.5123 14.8232 39.8358 18.241L39.7533 18.1593C39.9971 21.0173 39.6076 23.8936 38.6127 26.5873C37.6179 29.281 36.0415 31.7272 33.9933 33.7553C31.9451 35.7835 29.4746 37.3445 26.7542 38.3294C24.0338 39.3145 21.1291 39.7002 18.2427 39.4588L18.3252 39.5405C15.505 39.29 12.6665 39.7487 10.0728 40.8736C7.47921 41.9985 5.21427 43.7536 3.48797 45.9761C1.76167 48.1982 0.629869 50.8164 0.197366 53.587C-0.235091 56.3581 0.0457748 59.1923 1.01393 61.8268C1.98209 64.4618 3.60629 66.8118 5.73595 68.6595C7.86561 70.5077 10.4318 71.7932 13.1969 72.3976C15.9619 73.0016 18.8362 72.9049 21.5535 72.1167C24.2708 71.3281 26.7431 69.8734 28.7414 67.8868H28.7322Z" fill="url(#paint0_linear_1927_34523)"/>
</g>
<defs>
<linearGradient id="paint0_linear_1927_34523" x1="36.7313" y1="0" x2="36.7313" y2="72.7888" gradientUnits="userSpaceOnUse">
<stop stop-color="#2B2B2B"/>
<stop offset="1" stop-color="#ACACAC"/>
</linearGradient>
</defs>
</svg>
