<svg
          width="40"
          height="40"
          viewBox="0 0 40 40"
          fill="none"
          xmlns="http://www.w3.org/2000/svg"
        >
          <path
            d="M0 20C0 8.95431 8.95431 0 20 0C31.0457 0 40 8.95431 40 20C40 31.0457 31.0457 40 20 40C8.95431 40 0 31.0457 0 20Z"
            fill="url(#paint0_linear_1756_18769)"
          />
          <g clip-path="url(#clip0_1756_18769)">
            <path
              d="M19.1802 12.345C19.2159 12.1538 19.3174 11.9812 19.467 11.8569C19.6166 11.7327 19.8049 11.6647 19.9994 11.6647C20.1939 11.6647 20.3822 11.7327 20.5318 11.8569C20.6814 11.9812 20.7829 12.1538 20.8186 12.345L21.6944 16.9767C21.7566 17.306 21.9166 17.6088 22.1536 17.8458C22.3905 18.0828 22.6934 18.2428 23.0227 18.305L27.6544 19.1808C27.8456 19.2165 28.0182 19.318 28.1425 19.4676C28.2667 19.6172 28.3347 19.8055 28.3347 20C28.3347 20.1945 28.2667 20.3828 28.1425 20.5324C28.0182 20.682 27.8456 20.7835 27.6544 20.8192L23.0227 21.695C22.6934 21.7572 22.3905 21.9172 22.1536 22.1542C21.9166 22.3912 21.7566 22.694 21.6944 23.0233L20.8186 27.655C20.7829 27.8462 20.6814 28.0188 20.5318 28.1431C20.3822 28.2673 20.1939 28.3353 19.9994 28.3353C19.8049 28.3353 19.6166 28.2673 19.467 28.1431C19.3174 28.0188 19.2159 27.8462 19.1802 27.655L18.3044 23.0233C18.2422 22.694 18.0822 22.3912 17.8452 22.1542C17.6082 21.9172 17.3053 21.7572 16.9761 21.695L12.3444 20.8192C12.1532 20.7835 11.9806 20.682 11.8563 20.5324C11.7321 20.3828 11.6641 20.1945 11.6641 20C11.6641 19.8055 11.7321 19.6172 11.8563 19.4676C11.9806 19.318 12.1532 19.2165 12.3444 19.1808L16.9761 18.305C17.3053 18.2428 17.6082 18.0828 17.8452 17.8458C18.0822 17.6088 18.2422 17.306 18.3044 16.9767L19.1802 12.345Z"
              stroke="white"
              stroke-width="1.66667"
              stroke-linecap="round"
              stroke-linejoin="round"
            />
            <path
              d="M26.666 11.6667V15"
              stroke="white"
              stroke-width="1.66667"
              stroke-linecap="round"
              stroke-linejoin="round"
            />
            <path
              d="M28.3333 13.3333H25"
              stroke="white"
              stroke-width="1.66667"
              stroke-linecap="round"
              stroke-linejoin="round"
            />
            <path
              d="M13.3327 28.3333C14.2532 28.3333 14.9993 27.5871 14.9993 26.6667C14.9993 25.7462 14.2532 25 13.3327 25C12.4122 25 11.666 25.7462 11.666 26.6667C11.666 27.5871 12.4122 28.3333 13.3327 28.3333Z"
              stroke="white"
              stroke-width="1.66667"
              stroke-linecap="round"
              stroke-linejoin="round"
            />
          </g>
          <defs>
            <linearGradient
              id="paint0_linear_1756_18769"
              x1="20"
              y1="0"
              x2="20"
              y2="40"
              gradientUnits="userSpaceOnUse"
            >
              <stop stop-color="#F6F6F6" />
              <stop offset="1" stop-color="#82CEAE" />
            </linearGradient>
            <clipPath id="clip0_1756_18769">
              <rect
                width="20"
                height="20"
                fill="white"
                transform="translate(10 10)"
              />
            </clipPath>
          </defs>
        </svg>