<svg width="14" height="14" viewBox="0 0 14 14" fill="none" xmlns="http://www.w3.org/2000/svg">
<g clip-path="url(#clip0_119_4186)">
<path d="M12.3517 5.62297C12.1455 5.4075 11.9323 5.18547 11.8519 4.99023C11.7775 4.81141 11.7731 4.515 11.7688 4.22789C11.7605 3.69414 11.7518 3.0893 11.3313 2.66875C10.9107 2.2482 10.3059 2.23945 9.77211 2.23125C9.485 2.22687 9.18859 2.2225 9.00977 2.14812C8.81508 2.06773 8.5925 1.85445 8.37703 1.64828C7.99969 1.2857 7.57094 0.875 7 0.875C6.42906 0.875 6.00086 1.2857 5.62297 1.64828C5.4075 1.85445 5.18547 2.06773 4.99023 2.14812C4.8125 2.2225 4.515 2.22687 4.22789 2.23125C3.69414 2.23945 3.0893 2.2482 2.66875 2.66875C2.2482 3.0893 2.24219 3.69414 2.23125 4.22789C2.22687 4.515 2.2225 4.81141 2.14812 4.99023C2.06773 5.18492 1.85445 5.4075 1.64828 5.62297C1.2857 6.00031 0.875 6.42906 0.875 7C0.875 7.57094 1.2857 7.99914 1.64828 8.37703C1.85445 8.5925 2.06773 8.81453 2.14812 9.00977C2.2225 9.18859 2.22687 9.485 2.23125 9.77211C2.23945 10.3059 2.2482 10.9107 2.66875 11.3313C3.0893 11.7518 3.69414 11.7605 4.22789 11.7688C4.515 11.7731 4.81141 11.7775 4.99023 11.8519C5.18492 11.9323 5.4075 12.1455 5.62297 12.3517C6.00031 12.7143 6.42906 13.125 7 13.125C7.57094 13.125 7.99914 12.7143 8.37703 12.3517C8.5925 12.1455 8.81453 11.9323 9.00977 11.8519C9.18859 11.7775 9.485 11.7731 9.77211 11.7688C10.3059 11.7605 10.9107 11.7518 11.3313 11.3313C11.7518 10.9107 11.7605 10.3059 11.7688 9.77211C11.7731 9.485 11.7775 9.18859 11.8519 9.00977C11.9323 8.81508 12.1455 8.5925 12.3517 8.37703C12.7143 7.99969 13.125 7.57094 13.125 7C13.125 6.42906 12.7143 6.00086 12.3517 5.62297ZM9.49703 5.99703L6.43453 9.05953C6.3939 9.10021 6.34565 9.13248 6.29254 9.1545C6.23942 9.17651 6.18249 9.18784 6.125 9.18784C6.06751 9.18784 6.01058 9.17651 5.95746 9.1545C5.90435 9.13248 5.8561 9.10021 5.81547 9.05953L4.50297 7.74703C4.42088 7.66494 4.37476 7.5536 4.37476 7.4375C4.37476 7.3214 4.42088 7.21006 4.50297 7.12797C4.58506 7.04588 4.6964 6.99976 4.8125 6.99976C4.9286 6.99976 5.03994 7.04588 5.12203 7.12797L6.125 8.13148L8.87797 5.37797C8.91862 5.33732 8.96687 5.30508 9.01998 5.28308C9.07309 5.26108 9.13001 5.24976 9.1875 5.24976C9.24499 5.24976 9.30191 5.26108 9.35502 5.28308C9.40813 5.30508 9.45638 5.33732 9.49703 5.37797C9.53768 5.41862 9.56992 5.46687 9.59192 5.51998C9.61392 5.57309 9.62524 5.63001 9.62524 5.6875C9.62524 5.74499 9.61392 5.80191 9.59192 5.85502C9.56992 5.90813 9.53768 5.95638 9.49703 5.99703Z" fill="#035925"/>
</g>
<defs>
<clipPath id="clip0_119_4186">
<rect width="14" height="14" fill="white"/>
</clipPath>
</defs>
</svg>
