<svg width="36"
     height="36"
     viewBox="0 0 36 36"
     fill="none"
     xmlns="http://www.w3.org/2000/svg">
  <path d="M0 12C0 5.37258 5.37258 0 12 0H24C30.6274 0 36 5.37258 36 12V24C36 30.6274 30.6274 36 24 36H12C5.37258 36 0 30.6274 0 24V12Z"
        fill="#52B788"
        fill-opacity="0.125" />
  <path d="M19.6667 15.9467V13.8333C19.6667 12.9493 20.0179 12.1014 20.643 11.4763C21.2681 10.8512 22.1159 10.5 23 10.5H24.25C24.3605 10.5 24.4665 10.5439 24.5446 10.622C24.6228 10.7002 24.6667 10.8062 24.6667 10.9167V12.1667C24.6667 13.0507 24.3155 13.8986 23.6904 14.5237C23.0652 15.1488 22.2174 15.5 21.3333 15.5C20.4493 15.5 19.6014 15.8512 18.9763 16.4763C18.3512 17.1014 18 17.9493 18 18.8333C18 20.5 18.8333 21.3333 18.8333 23C18.8333 23.9015 18.5409 24.7788 18 25.5"
        stroke="#2A9B4C"
        stroke-width="1.5"
        stroke-linecap="round"
        stroke-linejoin="round" />
  <path d="M11.332 15.5001C11.9511 15.0358 12.6872 14.7531 13.4578 14.6836C14.2285 14.6141 15.0033 14.7606 15.6954 15.1066C16.3875 15.4527 16.9696 15.9846 17.3764 16.6429C17.7832 17.3011 17.9987 18.0596 17.9987 18.8334C17.3797 19.2977 16.6436 19.5804 15.8729 19.6499C15.1022 19.7194 14.3274 19.5729 13.6353 19.2269C12.9432 18.8808 12.3611 18.3489 11.9543 17.6906C11.5475 17.0324 11.332 16.2739 11.332 15.5001Z"
        stroke="#2A9B4C"
        stroke-width="1.5"
        stroke-linecap="round"
        stroke-linejoin="round" />
  <path d="M12.168 25.5H23.8346"
        stroke="#2A9B4C"
        stroke-width="1.5"
        stroke-linecap="round"
        stroke-linejoin="round" />
</svg>