<svg width="36"
     height="36"
     viewBox="0 0 36 36"
     fill="none"
     xmlns="http://www.w3.org/2000/svg">
  <path d="M0 12C0 5.37258 5.37258 0 12 0H24C30.6274 0 36 5.37258 36 12V24C36 30.6274 30.6274 36 24 36H12C5.37258 36 0 30.6274 0 24V12Z"
        fill="#52B788"
        fill-opacity="0.125" />
  <path d="M21.1275 21.222C20.8964 22.9814 20.8964 24.7407 21.1275 26.5001H17.7617C17.9928 24.7407 17.9928 22.9814 17.7617 21.222M21.1275 21.222H17.7617M21.1275 21.222C20.8964 19.4627 20.8964 17.7033 21.1275 15.9439H17.7617C17.9928 17.7033 17.9928 19.4627 17.7617 21.222M23.0651 11.5014C22.3859 12.1772 21.083 11.9765 21.083 11.9765C21.083 11.9765 20.8813 10.6802 21.5605 10.0044C22.2397 9.32863 23.5426 9.52933 23.5426 9.52933C23.5426 9.52933 23.7443 10.8257 23.0651 11.5014Z"
        stroke="#2A9B4C"
        stroke-width="1.4"
        stroke-miterlimit="10"
        stroke-linecap="round"
        stroke-linejoin="round" />
  <path d="M21.1275 15.9436C20.8964 14.1843 20.8964 12.4249 21.1275 10.6655M17.8526 11.3783C17.9989 12.9034 17.9622 14.417 17.7617 15.9436"
        stroke="#2A9B4C"
        stroke-width="1.4"
        stroke-miterlimit="10"
        stroke-linecap="round"
        stroke-linejoin="round" />
  <path d="M20.9231 9.84683C21.2209 10.1777 21.2196 10.6742 20.9533 11.0275C20.859 11.1526 20.7523 11.2743 20.635 11.3911C19.7967 12.2251 18.6627 12.4492 18.1022 11.8916C18.0072 11.797 17.9419 11.6841 17.8958 11.5596C17.7904 11.2754 17.8367 10.9576 18.0109 10.7109C18.1127 10.5668 18.2269 10.4317 18.3521 10.3072C19.1904 9.47308 20.3244 9.24899 20.8849 9.80664C20.898 9.81973 20.9107 9.83314 20.9231 9.84683ZM26.4743 26.5C26.2588 24.8592 26.2588 23.2184 26.4743 21.5776H23.3353C23.5509 23.2184 23.5509 24.8592 23.3353 26.5H26.4743Z"
        stroke="#2A9B4C"
        stroke-width="1.4"
        stroke-miterlimit="10"
        stroke-linecap="round"
        stroke-linejoin="round" />
  <path d="M26.4749 21.5777C26.2594 19.9369 26.2594 18.2961 26.4749 16.6553M23.4207 17.32C23.5572 18.7423 23.523 20.154 23.3359 21.5777"
        stroke="#2A9B4C"
        stroke-width="1.4"
        stroke-miterlimit="10"
        stroke-linecap="round"
        stroke-linejoin="round" />
  <path d="M26.2882 15.8913C26.5659 16.2 26.5647 16.663 26.3164 16.9924C26.2285 17.1091 26.1289 17.2226 26.0195 17.3315C25.2377 18.1094 24.1801 18.3184 23.6574 17.7983C23.5688 17.7101 23.5079 17.6047 23.4649 17.4887C23.3666 17.2236 23.4098 16.9272 23.5722 16.6972C23.6672 16.5628 23.7736 16.4368 23.8904 16.3206C24.6722 15.5427 25.7298 15.3338 26.2525 15.8539C26.2648 15.8661 26.2767 15.8786 26.2882 15.8913ZM15.1272 26.4999C14.9117 24.8591 14.9117 23.2183 15.1272 21.5775H11.9883C12.2038 23.2183 12.2038 24.8591 11.9883 26.4999H15.1272Z"
        stroke="#2A9B4C"
        stroke-width="1.4"
        stroke-miterlimit="10"
        stroke-linecap="round"
        stroke-linejoin="round" />
  <path d="M15.1273 21.5777C14.9117 19.9369 14.9117 18.2961 15.1273 16.6553M12.0731 17.32C12.2095 18.7423 12.1753 20.154 11.9883 21.5777"
        stroke="#2A9B4C"
        stroke-width="1.4"
        stroke-miterlimit="10"
        stroke-linecap="round"
        stroke-linejoin="round" />
  <path d="M14.938 15.8913C15.2157 16.2 15.2145 16.663 14.9662 16.9924C14.8783 17.1091 14.7787 17.2226 14.6693 17.3315C13.8875 18.1094 12.8299 18.3184 12.3072 17.7983C12.2186 17.7101 12.1577 17.6047 12.1146 17.4887C12.0164 17.2236 12.0596 16.9272 12.222 16.6972C12.3169 16.5628 12.4234 16.4368 12.5402 16.3206C13.322 15.5427 14.3796 15.3338 14.9023 15.8539C14.9146 15.8661 14.9265 15.8786 14.938 15.8913Z"
        stroke="#2A9B4C"
        stroke-width="1.4"
        stroke-miterlimit="10"
        stroke-linecap="round"
        stroke-linejoin="round" />
</svg>