<svg width="24" height="24" viewBox="0 0 24 24" fill="none" xmlns="http://www.w3.org/2000/svg">
<path d="M21.75 20.625H19.875V3.375H20.25C20.5484 3.375 20.8345 3.25647 21.0455 3.0455C21.2565 2.83452 21.375 2.54837 21.375 2.25C21.375 1.95163 21.2565 1.66548 21.0455 1.4545C20.8345 1.24353 20.5484 1.125 20.25 1.125H3.75C3.45163 1.125 3.16548 1.24353 2.9545 1.4545C2.74353 1.66548 2.625 1.95163 2.625 2.25C2.625 2.54837 2.74353 2.83452 2.9545 3.0455C3.16548 3.25647 3.45163 3.375 3.75 3.375H4.125V20.625H2.25C1.95163 20.625 1.66548 20.7435 1.4545 20.9545C1.24353 21.1655 1.125 21.4516 1.125 21.75C1.125 22.0484 1.24353 22.3345 1.4545 22.5455C1.66548 22.7565 1.95163 22.875 2.25 22.875H21.75C22.0484 22.875 22.3345 22.7565 22.5455 22.5455C22.7565 22.3345 22.875 22.0484 22.875 21.75C22.875 21.4516 22.7565 21.1655 22.5455 20.9545C22.3345 20.7435 22.0484 20.625 21.75 20.625ZM6.375 3.375H17.625V20.625H15.375V17.25C15.375 16.9516 15.2565 16.6655 15.0455 16.4545C14.8345 16.2435 14.5484 16.125 14.25 16.125H9.75C9.45163 16.125 9.16548 16.2435 8.9545 16.4545C8.74353 16.6655 8.625 16.9516 8.625 17.25V20.625H6.375V3.375ZM13.125 20.625H10.875V18.375H13.125V20.625ZM7.875 6C7.875 5.70163 7.99353 5.41548 8.2045 5.2045C8.41548 4.99353 8.70163 4.875 9 4.875H10.125C10.4234 4.875 10.7095 4.99353 10.9205 5.2045C11.1315 5.41548 11.25 5.70163 11.25 6C11.25 6.29837 11.1315 6.58452 10.9205 6.7955C10.7095 7.00647 10.4234 7.125 10.125 7.125H9C8.70163 7.125 8.41548 7.00647 8.2045 6.7955C7.99353 6.58452 7.875 6.29837 7.875 6ZM12.75 6C12.75 5.70163 12.8685 5.41548 13.0795 5.2045C13.2905 4.99353 13.5766 4.875 13.875 4.875H15C15.2984 4.875 15.5845 4.99353 15.7955 5.2045C16.0065 5.41548 16.125 5.70163 16.125 6C16.125 6.29837 16.0065 6.58452 15.7955 6.7955C15.5845 7.00647 15.2984 7.125 15 7.125H13.875C13.5766 7.125 13.2905 7.00647 13.0795 6.7955C12.8685 6.58452 12.75 6.29837 12.75 6ZM7.875 9.75C7.875 9.45163 7.99353 9.16548 8.2045 8.9545C8.41548 8.74353 8.70163 8.625 9 8.625H10.125C10.4234 8.625 10.7095 8.74353 10.9205 8.9545C11.1315 9.16548 11.25 9.45163 11.25 9.75C11.25 10.0484 11.1315 10.3345 10.9205 10.5455C10.7095 10.7565 10.4234 10.875 10.125 10.875H9C8.70163 10.875 8.41548 10.7565 8.2045 10.5455C7.99353 10.3345 7.875 10.0484 7.875 9.75ZM12.75 9.75C12.75 9.45163 12.8685 9.16548 13.0795 8.9545C13.2905 8.74353 13.5766 8.625 13.875 8.625H15C15.2984 8.625 15.5845 8.74353 15.7955 8.9545C16.0065 9.16548 16.125 9.45163 16.125 9.75C16.125 10.0484 16.0065 10.3345 15.7955 10.5455C15.5845 10.7565 15.2984 10.875 15 10.875H13.875C13.5766 10.875 13.2905 10.7565 13.0795 10.5455C12.8685 10.3345 12.75 10.0484 12.75 9.75ZM7.875 13.5C7.875 13.2016 7.99353 12.9155 8.2045 12.7045C8.41548 12.4935 8.70163 12.375 9 12.375H10.125C10.4234 12.375 10.7095 12.4935 10.9205 12.7045C11.1315 12.9155 11.25 13.2016 11.25 13.5C11.25 13.7984 11.1315 14.0845 10.9205 14.2955C10.7095 14.5065 10.4234 14.625 10.125 14.625H9C8.70163 14.625 8.41548 14.5065 8.2045 14.2955C7.99353 14.0845 7.875 13.7984 7.875 13.5ZM12.75 13.5C12.75 13.2016 12.8685 12.9155 13.0795 12.7045C13.2905 12.4935 13.5766 12.375 13.875 12.375H15C15.2984 12.375 15.5845 12.4935 15.7955 12.7045C16.0065 12.9155 16.125 13.2016 16.125 13.5C16.125 13.7984 16.0065 14.0845 15.7955 14.2955C15.5845 14.5065 15.2984 14.625 15 14.625H13.875C13.5766 14.625 13.2905 14.5065 13.0795 14.2955C12.8685 14.0845 12.75 13.7984 12.75 13.5Z" fill="#606060"/>
</svg>
