<svg width="70" height="70" viewBox="0 0 70 70" fill="none" xmlns="http://www.w3.org/2000/svg">
<path d="M63.5862 29.1665C64.9182 35.7036 63.9689 42.4998 60.8966 48.4217C57.8242 54.3437 52.8146 59.0333 46.7031 61.7087C40.5916 64.3841 33.7476 64.8834 27.3125 63.1234C20.8773 61.3635 15.2401 57.4506 11.3407 52.0373C7.44139 46.6241 5.5157 40.0376 5.88478 33.3764C6.25386 26.7152 8.8954 20.3818 13.3689 15.4324C17.8424 10.4831 23.8775 7.21694 30.4676 6.17867C37.0578 5.1404 43.8047 6.39277 49.5833 9.72693" stroke="#174C36" stroke-width="5.83333" stroke-linecap="round" stroke-linejoin="round"/>
<path d="M26.25 32.0832L35 40.8332L64.1667 11.6665" stroke="#174C36" stroke-width="5.83333" stroke-linecap="round" stroke-linejoin="round"/>
<path d="M0 35C0 15.67 15.67 0 35 0C54.33 0 70 15.67 70 35C70 54.33 54.33 70 35 70C15.67 70 0 54.33 0 35Z" fill="#CFE9D6" fill-opacity="0.2"/>
</svg>
