<svg width="36"
     height="36"
     viewBox="0 0 36 36"
     fill="none"
     xmlns="http://www.w3.org/2000/svg">
  <path d="M0 12C0 5.37258 5.37258 0 12 0H24C30.6274 0 36 5.37258 36 12V24C36 30.6274 30.6274 36 24 36H12C5.37258 36 0 30.6274 0 24V12Z"
        fill="#52B788"
        fill-opacity="0.125" />
  <path d="M24.7997 14.0335C24.7997 19.1335 21.3997 25.3668 14.5997 25.3668C11.7664 25.3668 10.0664 26.5002 10.0664 26.5002C10.0664 26.5002 11.1997 24.8002 11.1997 21.9668C11.1997 15.1668 17.433 11.7668 22.5331 11.7668C23.3831 11.7668 24.7997 13.1835 24.7997 14.0335Z"
        stroke="#2A9B4C"
        stroke-width="1.5"
        stroke-miterlimit="10"
        stroke-linecap="round"
        stroke-linejoin="round" />
  <path d="M10.0664 26.5C10.0664 26.5 11.3606 24.9609 12.1649 22.9318C14.0952 18.0621 19.5242 13.8579 23.1765 12.4101M25.9331 10.6333L23.9851 12.5813M15.3946 13.9927C13.4488 13.8176 11.5564 13.0756 10.0664 11.7666C11.7865 10.2555 14.0431 9.5 16.2997 9.5C18.5563 9.5 20.8129 10.2555 22.5331 11.7667C20.1503 11.7667 17.5202 12.5088 15.3946 13.9927Z"
        stroke="#2A9B4C"
        stroke-width="1.5"
        stroke-miterlimit="10"
        stroke-linecap="round"
        stroke-linejoin="round" />
</svg>