<svg width="36"
     height="36"
     viewBox="0 0 36 36"
     fill="none"
     xmlns="http://www.w3.org/2000/svg">
  <path d="M0 12C0 5.37258 5.37258 0 12 0H24C30.6274 0 36 5.37258 36 12V24C36 30.6274 30.6274 36 24 36H12C5.37258 36 0 30.6274 0 24V12Z"
        fill="#52B788"
        fill-opacity="0.125" />
  <path d="M16.332 9.66675V11.3334"
        stroke="#2A9B4C"
        stroke-width="1.5"
        stroke-linecap="round"
        stroke-linejoin="round" />
  <path d="M19.668 9.66675V11.3334"
        stroke="#2A9B4C"
        stroke-width="1.5"
        stroke-linecap="round"
        stroke-linejoin="round" />
  <path d="M21.3333 14.6667C21.5543 14.6667 21.7663 14.7545 21.9226 14.9108C22.0789 15.0671 22.1667 15.2791 22.1667 15.5001V22.1667C22.1667 23.0508 21.8155 23.8986 21.1904 24.5238C20.5652 25.1489 19.7174 25.5001 18.8333 25.5001H13.8333C12.9493 25.5001 12.1014 25.1489 11.4763 24.5238C10.8512 23.8986 10.5 23.0508 10.5 22.1667V15.5001C10.5 15.2791 10.5878 15.0671 10.7441 14.9108C10.9004 14.7545 11.1123 14.6667 11.3333 14.6667H23C23.8841 14.6667 24.7319 15.0179 25.357 15.6431C25.9821 16.2682 26.3333 17.116 26.3333 18.0001C26.3333 18.8841 25.9821 19.732 25.357 20.3571C24.7319 20.9822 23.8841 21.3334 23 21.3334H22.1667"
        stroke="#2A9B4C"
        stroke-width="1.5"
        stroke-linecap="round"
        stroke-linejoin="round" />
  <path d="M13 9.66675V11.3334"
        stroke="#2A9B4C"
        stroke-width="1.5"
        stroke-linecap="round"
        stroke-linejoin="round" />
</svg>