<svg width="17" height="17" viewBox="0 0 17 17" fill="none" xmlns="http://www.w3.org/2000/svg">
<g clip-path="url(#clip0_367_13271)">
<path d="M11.1576 14.065V9.421H12.7126L12.9456 7.616H11.1576V6.463C11.1576 5.941 11.3026 5.585 12.0526 5.585H13.0086V3.969C12.546 3.91969 12.0809 3.89565 11.6156 3.897C10.2376 3.897 9.29365 4.739 9.29365 6.284V7.615H7.73465V9.42H9.29365V14.065H3.55665C3.37975 14.065 3.21009 13.9947 3.08501 13.8696C2.95992 13.7446 2.88965 13.5749 2.88965 13.398V2.732C2.88965 2.363 3.18765 2.065 3.55665 2.065H14.2226C14.5906 2.065 14.8896 2.363 14.8896 2.732V13.398C14.8896 13.5749 14.8194 13.7446 14.6943 13.8696C14.5692 13.9947 14.3995 14.065 14.2226 14.065H11.1576Z" fill="#035925"/>
</g>
<defs>
<clipPath id="clip0_367_13271">
<rect width="16" height="16" fill="white" transform="translate(0.889648 0.0650024)"/>
</clipPath>
</defs>
</svg>
