<svg width="36"
     height="36"
     viewBox="0 0 36 36"
     fill="none"
     xmlns="http://www.w3.org/2000/svg">
  <path d="M0 12C0 5.37258 5.37258 0 12 0H24C30.6274 0 36 5.37258 36 12V24C36 30.6274 30.6274 36 24 36H12C5.37258 36 0 30.6274 0 24V12Z"
        fill="#52B788"
        fill-opacity="0.125" />
  <path d="M18 13.4401V10.5001C18 10.2791 18.0878 10.0671 18.2441 9.91083C18.4004 9.75455 18.6123 9.66675 18.8333 9.66675"
        stroke="#2A9B4C"
        stroke-width="1.5"
        stroke-linecap="round"
        stroke-linejoin="round" />
  <path d="M23.1988 25.5C25.2315 23.2013 26.3477 20.2352 26.3347 17.1666C26.3346 16.2014 26.0552 15.2569 25.5302 14.447C25.0052 13.637 24.257 12.9964 23.3758 12.6024C22.4947 12.2083 21.5184 12.0778 20.5647 12.2264C19.611 12.375 18.7207 12.7965 18.0013 13.44C17.2819 12.7965 16.3916 12.375 15.4379 12.2264C14.4842 12.0778 13.5079 12.2083 12.6268 12.6024C11.7457 12.9964 10.9975 13.637 10.4724 14.447C9.9474 15.2569 9.66801 16.2014 9.66799 17.1666C9.66273 20.2338 10.7779 23.1972 12.8038 25.5C13.1769 25.9174 13.6793 26.1974 14.2305 26.2954C14.7817 26.3933 15.3498 26.3033 15.8438 26.04C16.5078 25.6857 17.2488 25.5004 18.0013 25.5004C18.7539 25.5004 19.4949 25.6857 20.1588 26.04C20.6528 26.3033 21.2209 26.3933 21.7721 26.2954C22.3233 26.1974 22.8257 25.9174 23.1988 25.5Z"
        stroke="#2A9B4C"
        stroke-width="1.5"
        stroke-linecap="round"
        stroke-linejoin="round" />
</svg>