<svg width="36"
     height="36"
     viewBox="0 0 36 36"
     fill="none"
     xmlns="http://www.w3.org/2000/svg">
  <path d="M0 12C0 5.37258 5.37258 0 12 0H24C30.6274 0 36 5.37258 36 12V24C36 30.6274 30.6274 36 24 36H12C5.37258 36 0 30.6274 0 24V12Z"
        fill="#52B788"
        fill-opacity="0.125" />
  <path d="M22.5 11H13.5M22.5 11C22.966 11 23.199 11 23.383 10.923C23.6277 10.8217 23.8223 10.6275 23.924 10.383C24 10.199 24 9.966 24 9.5C24 9.034 24 8.801 23.923 8.617C23.8217 8.37227 23.6275 8.17771 23.383 8.076C23.199 8 22.966 8 22.5 8H13.5C13.034 8 12.801 8 12.617 8.077C12.3723 8.17826 12.1777 8.37246 12.076 8.617C12 8.801 12 9.034 12 9.5C12 9.966 12 10.199 12.077 10.383C12.1783 10.6277 12.3725 10.8223 12.617 10.924C12.801 11 13.034 11 13.5 11M22.5 11L22.682 11.218C23.829 12.595 24.403 13.283 24.701 14.108C25 14.933 25 15.829 25 17.62V22C25 24.828 25 26.243 24.121 27.121C23.243 28 21.828 28 19 28H17C14.172 28 12.757 28 11.879 27.121C11 26.243 11 24.828 11 22V17.62C11 15.828 11 14.932 11.298 14.109C11.598 13.283 12.171 12.595 13.318 11.219L13.5 11"
        stroke="#2A9B4C"
        stroke-width="1.5"
        stroke-linecap="round" />
  <path d="M16 19.294V17.412L18 16L20 17.412V19.294M16 19.294L18 20.706M16 19.294L14 20.706V22.588L16 24L18 22.588M20 19.294L18 20.706M20 19.294L22 20.706V22.588L20 24L18 22.588M18 20.706V22.588"
        stroke="#2A9B4C"
        stroke-width="1.5"
        stroke-linecap="round"
        stroke-linejoin="round" />
</svg>