<svg width="48" height="48" viewBox="0 0 48 48" fill="none" xmlns="http://www.w3.org/2000/svg">
  <path d="M0 24C0 10.7452 10.7452 0 24 0C37.2548 0 48 10.7452 48 24C48 37.2548 37.2548 48 24 48C10.7452 48 0 37.2548 0 24Z" fill="#E5E7EB"/>
  <path d="M31 15H17C15.8954 15 15 15.8954 15 17V31C15 32.1046 15.8954 33 17 33H31C32.1046 33 33 32.1046 33 31V17C33 15.8954 32.1046 15 31 15Z" stroke="#99A1AF" stroke-width="2" stroke-linecap="round" stroke-linejoin="round"/>
  <path d="M21 23C22.1046 23 23 22.1046 23 21C23 19.8954 22.1046 19 21 19C19.8954 19 19 19.8954 19 21C19 22.1046 19.8954 23 21 23Z" stroke="#99A1AF" stroke-width="2" stroke-linecap="round" stroke-linejoin="round"/>
  <path d="M33 26.9999L29.914 23.9139C29.5389 23.539 29.0303 23.3284 28.5 23.3284C27.9697 23.3284 27.4611 23.539 27.086 23.9139L18 32.9999" stroke="#99A1AF" stroke-width="2" stroke-linecap="round" stroke-linejoin="round"/>
</svg>
