<svg width="16" height="17" viewBox="0 0 16 17" fill="none" xmlns="http://www.w3.org/2000/svg">
<g clip-path="url(#clip0_367_13257)">
<path d="M8.68498 1.39902C9.43498 1.40002 9.81499 1.40402 10.145 1.41402L10.274 1.41802L10.749 1.43802C11.458 1.47102 11.942 1.58402 12.367 1.74802C12.807 1.91802 13.177 2.14702 13.547 2.51802C13.917 2.88802 14.147 3.26002 14.317 3.69802C14.481 4.12302 14.594 4.60802 14.627 5.31702L14.647 5.79202L14.651 5.92102C14.661 6.24902 14.665 6.63002 14.666 7.38002V8.75002C14.666 9.50002 14.661 9.88002 14.651 10.21L14.647 10.339C14.642 10.489 14.635 10.636 14.627 10.814C14.594 11.523 14.481 12.007 14.317 12.432C14.147 12.872 13.917 13.242 13.547 13.613C13.177 13.983 12.805 14.212 12.367 14.382C11.942 14.546 11.457 14.659 10.748 14.692L10.274 14.712L10.144 14.716C9.81598 14.726 9.43598 14.73 8.68498 14.731H7.31498C6.56498 14.731 6.18498 14.726 5.85598 14.716L5.72598 14.712C5.57698 14.707 5.42998 14.7 5.25198 14.692C4.54198 14.659 4.05898 14.546 3.63398 14.382C3.1886 14.215 2.78516 13.9525 2.45198 13.613C2.11322 13.2798 1.85114 12.8768 1.68398 12.432C1.51898 12.007 1.40698 11.523 1.37398 10.813C1.36656 10.6551 1.3599 10.497 1.35398 10.339L1.34998 10.209C1.33998 9.88102 1.33598 9.50102 1.33398 8.75002V7.38002C1.33498 6.63002 1.33898 6.25002 1.34898 5.92102L1.35298 5.79102L1.37298 5.31702C1.40598 4.60702 1.51898 4.12402 1.68298 3.69902C1.85298 3.25902 2.08198 2.88802 2.45298 2.51702C2.82298 2.14702 3.19498 1.91902 3.63298 1.74902C4.05898 1.58402 4.54198 1.47202 5.25198 1.43902C5.42998 1.43102 5.57698 1.42402 5.72698 1.41902L5.85598 1.41502C6.18398 1.40502 6.56498 1.40102 7.31498 1.39902H8.68498ZM7.99998 4.73202C7.11602 4.73202 6.26826 5.08317 5.6432 5.70823C5.01814 6.33329 4.66698 7.18105 4.66698 8.06502C4.66698 8.94898 5.01814 9.79675 5.6432 10.4218C6.26826 11.0469 7.11602 11.398 7.99998 11.398C8.88395 11.398 9.73171 11.0469 10.3568 10.4218C10.9818 9.79675 11.333 8.94898 11.333 8.06502C11.333 7.18105 10.9818 6.33329 10.3568 5.70823C9.73171 5.08317 8.88395 4.73202 7.99998 4.73202ZM7.99998 6.06502C8.53042 6.06502 9.03912 6.27573 9.4142 6.6508C9.78927 7.02588 9.99998 7.53458 9.99998 8.06502C9.99998 8.59545 9.78927 9.10416 9.4142 9.47923C9.03912 9.8543 8.53042 10.065 7.99998 10.065C7.46955 10.065 6.96084 9.8543 6.58577 9.47923C6.2107 9.10416 5.99998 8.59545 5.99998 8.06502C5.99998 7.53458 6.2107 7.02588 6.58577 6.6508C6.96084 6.27573 7.46955 6.06502 7.99998 6.06502ZM11.5 3.73202C11.3881 3.72821 11.2766 3.74697 11.1721 3.78717C11.0676 3.82738 10.9723 3.88821 10.8918 3.96603C10.8114 4.04386 10.7474 4.1371 10.7037 4.24018C10.66 4.34326 10.6375 4.45408 10.6376 4.56603C10.6377 4.67799 10.6603 4.78878 10.7041 4.89181C10.7479 4.99484 10.812 5.088 10.8925 5.16573C10.9731 5.24346 11.0685 5.30418 11.173 5.34426C11.2776 5.38434 11.3891 5.40296 11.501 5.39902C11.717 5.39153 11.9218 5.30044 12.072 5.14495C12.2222 4.98945 12.3061 4.78171 12.3061 4.56552C12.3061 4.34933 12.2222 4.14158 12.072 3.98609C11.9218 3.83059 11.717 3.7395 11.501 3.73202H11.5Z" fill="#035925"/>
</g>
<defs>
<clipPath id="clip0_367_13257">
<rect width="16" height="16" fill="white" transform="translate(0 0.0650024)"/>
</clipPath>
</defs>
</svg>
