<svg width="68" height="60" viewBox="0 0 68 60" fill="none" xmlns="http://www.w3.org/2000/svg">
<path fill-rule="evenodd" clip-rule="evenodd" d="M33.0794 5.23795C32.9459 5.32277 32.8918 5.57762 32.9555 5.82133C33.0575 6.21104 33.1927 6.25404 34.3161 6.25404H35.5633V5.66772C35.5633 5.08394 35.5586 5.0814 34.4397 5.08433C33.8219 5.08609 33.2095 5.15508 33.0794 5.23795ZM30.3363 5.95384C29.7722 6.21651 29.3104 6.49462 29.3104 6.57163C29.3104 6.64882 29.4527 6.86889 29.6264 7.06101C29.9285 7.39501 29.9859 7.38817 30.9454 6.90622C32.183 6.28453 32.1068 6.36231 31.9531 5.87782C31.7889 5.36068 31.5902 5.36987 30.3363 5.95384ZM36.5313 5.87996C36.2726 6.36348 36.1839 6.27475 37.5349 6.88394C38.5983 7.36335 38.6333 7.36648 38.8605 7.00277C39.1661 6.51339 39.0057 6.29 38.0307 5.84713C36.998 5.37808 36.7975 5.38257 36.5313 5.87996ZM27.3224 8.04993C26.5289 8.90967 26.4845 9.12211 27.0275 9.46472C27.3011 9.63729 27.4928 9.51964 28.1187 8.79475C28.7066 8.11384 28.8372 7.83808 28.6965 7.57325C28.4229 7.05749 28.1515 7.1515 27.3224 8.04993ZM39.6566 7.53671C39.4403 7.79723 39.5353 7.97391 40.3044 8.74335C41.0737 9.5126 41.2503 9.60759 41.5108 9.39123C41.9688 9.0111 41.8897 8.75039 41.0752 7.95495C40.2543 7.15325 40.0296 7.087 39.6566 7.53671ZM33.5247 8.25729C33.6003 8.49905 33.7599 8.76172 33.8799 8.84068C34.2568 9.08909 34.9771 9.00524 34.9771 8.71306C34.9771 8.56062 35.0304 8.29677 35.0957 8.12674C35.1934 7.87189 35.0535 7.81755 34.301 7.81755C33.4434 7.81755 33.3959 7.84433 33.5247 8.25729ZM31.7041 8.24909C31.2346 8.47814 31.1648 8.72557 31.4448 9.16804C31.726 9.61208 32.8664 9.06622 32.7888 8.52466C32.7202 8.047 32.3245 7.94654 31.7041 8.24909ZM35.8726 8.33449C35.8099 8.49768 35.7587 8.70974 35.7587 8.8057C35.7587 8.9814 36.9216 9.65996 37.0204 9.54211C37.0497 9.50733 37.1769 9.28003 37.3034 9.03729C37.5431 8.57625 37.5523 8.58407 36.2146 8.11716C36.0891 8.07358 35.9352 8.1713 35.8726 8.33449ZM29.6864 9.69006C29.2204 10.1861 29.219 10.1988 29.5961 10.4748C29.9406 10.7267 30.0281 10.7065 30.4598 10.2748C30.8633 9.87104 30.8996 9.74576 30.6876 9.48993C30.3476 9.08029 30.2388 9.10198 29.6864 9.69006ZM37.9472 9.42016C37.6148 9.7526 37.6557 10.0506 38.0873 10.4413C38.3861 10.7118 38.5442 10.7363 38.8689 10.5625C39.3877 10.2846 39.3807 10.1339 38.8238 9.61052C38.2982 9.11684 38.2591 9.10824 37.9472 9.42016ZM25.6027 10.7374C25.3359 11.3816 25.4221 11.6349 25.9558 11.7744C26.4421 11.9017 26.9746 10.6078 26.5472 10.3372C26.0859 10.0448 25.8477 10.1456 25.6027 10.7374ZM41.8467 10.3354C41.4666 10.5762 42.1081 11.8061 42.5292 11.6445C42.692 11.5819 42.8977 11.5309 42.9863 11.5309C43.1799 11.5309 43.0095 10.7503 42.741 10.4071C42.5194 10.1239 42.2183 10.0997 41.8467 10.3354ZM33.8047 11.14C33.8047 11.585 33.8938 11.7263 34.1746 11.7263C34.54 11.7263 34.7817 11.3699 34.7817 10.8308C34.7817 10.6655 34.5845 10.5537 34.2932 10.5537C33.8807 10.5537 33.8047 10.645 33.8047 11.14ZM35.475 11.27C35.313 11.9157 35.6243 12.2765 36.0436 11.9286C36.451 11.5903 36.4231 11.1955 35.9742 10.9553C35.6624 10.7884 35.5832 10.8383 35.475 11.27ZM28.2408 11.5211C27.8349 12.3062 27.8621 12.4471 28.4409 12.5577C28.8538 12.6367 28.9835 12.5486 29.1989 12.0432C29.4238 11.5155 29.4173 11.4002 29.152 11.1889C28.7039 10.8322 28.572 10.8803 28.2408 11.5211ZM32.2702 11.1181C32.0638 11.2489 32.0547 11.3773 32.2282 11.7015C32.4924 12.1954 33.3277 12.2929 33.1417 11.808C33.0764 11.638 33.0231 11.3742 33.0231 11.2217C33.0231 10.9121 32.6717 10.8637 32.2702 11.1181ZM39.2935 11.3204C39.062 11.4672 39.0589 11.5931 39.2742 12.1129C39.4948 12.6455 39.6005 12.7135 40.0378 12.6037C40.7182 12.4329 40.7172 12.4354 40.36 11.7445C40.0384 11.1226 39.7729 11.0169 39.2935 11.3204ZM36.8692 12.2732C36.6882 12.4731 36.5403 12.7397 36.5403 12.8656C36.5403 13.198 37.2313 13.146 37.5255 12.7915C37.7321 12.5425 37.7252 12.4368 37.4874 12.1991C37.2318 11.9435 37.1597 11.9521 36.8692 12.2732ZM24.9004 12.3346C24.6204 12.7876 24.56 15.8363 24.8084 16.9782C25.2187 18.8654 26.2262 20.7064 27.5288 21.949C29.319 23.657 33.4139 25.4759 33.4139 24.5632C33.4139 24.3934 33.0842 24.0138 32.6811 23.7199C31.0743 22.5478 29.4584 20.8057 28.8981 19.6417C28.2062 18.204 28.1322 17.269 28.8131 18.5667C29.0668 19.0505 29.5244 19.6825 29.8298 19.9714C30.3998 20.5102 31.4835 21.1489 31.6113 21.0211C31.6508 20.9818 31.5341 20.3474 31.3524 19.6116C30.9266 17.8872 29.7272 15.3684 28.8421 14.3394C27.5784 12.8703 25.2889 11.7058 24.9004 12.3346ZM30.9368 12.4301C30.7455 12.9289 31.6711 13.3477 31.9536 12.8904C32.1125 12.6332 31.6977 12.1172 31.3321 12.1172C31.1806 12.1172 31.0028 12.2579 30.9368 12.4301ZM41.7976 12.6033C40.6588 13.1966 39.1603 14.8301 38.3367 16.3759C37.6096 17.74 36.7981 20.6617 37.0703 20.9339C37.3804 21.2441 38.7306 20.0363 39.5276 18.7354C40.2086 17.6243 40.275 17.5647 40.1527 18.1759C39.8276 19.799 38.3367 21.8222 36.3246 23.3706C35.2464 24.2005 34.8558 24.8235 35.4168 24.8187C35.5512 24.8175 36.0827 24.6885 36.5984 24.5321C39.8327 23.5506 42.5669 20.8804 43.507 17.785C43.8503 16.6546 43.9728 13.6098 43.7133 12.6547C43.5295 11.9777 43.0242 11.9642 41.7976 12.6033ZM30.3617 13.9645C30.2095 14.3613 30.4361 14.6579 30.8912 14.6579C31.367 14.6579 31.6158 14.0949 31.2441 13.8594C30.8385 13.6026 30.4844 13.6448 30.3617 13.9645ZM37.3708 13.8101C37.09 13.9235 37.0364 14.4625 37.3059 14.4625C37.4046 14.4625 37.6244 14.5159 37.7944 14.5811C38.0275 14.6706 38.1035 14.5745 38.1035 14.1903C38.1035 13.7003 37.9021 13.5957 37.3708 13.8101ZM30.9225 15.3944C30.4223 15.4768 30.4068 15.5187 30.6841 16.037C30.8543 16.3551 30.9444 16.3761 31.2703 16.1724C31.9527 15.7462 31.7356 15.2603 30.9225 15.3944ZM36.9311 15.6113C36.9311 15.813 37.0726 16.0956 37.2453 16.2391C37.5124 16.4607 37.6006 16.4439 37.8315 16.1278C38.2018 15.6215 38.176 15.5048 37.6639 15.3674C37.0009 15.1897 36.9311 15.213 36.9311 15.6113ZM31.6138 16.8789C31.3041 17.1142 31.3028 17.1664 31.5959 17.585C31.8985 18.017 31.9239 18.0211 32.1746 17.6781C32.7534 16.8865 32.3536 16.3168 31.6138 16.8789ZM36.0463 16.8166C35.9695 16.9409 36.0923 17.2282 36.3191 17.4551C36.6468 17.783 36.7811 17.8178 36.9733 17.6255C37.1515 17.4473 37.1595 17.2944 37.0034 17.0466C36.7433 16.6336 36.2349 16.5115 36.0463 16.8166ZM33.0252 17.6847C32.702 18.074 32.9158 18.5667 33.4078 18.5667C33.7185 18.5667 33.8047 18.4395 33.8047 17.9804C33.8047 17.339 33.4301 17.1969 33.0252 17.6847ZM34.7166 17.5245C34.6449 17.596 34.5863 17.8598 34.5863 18.1108C34.5863 18.4639 34.6938 18.5667 35.0633 18.5667C35.6907 18.5667 35.8091 18.3349 35.4465 17.8168C35.1403 17.3796 34.941 17.2999 34.7166 17.5245ZM29.7452 30.0488L29.7989 33.127H30.2874C30.755 33.127 30.7785 33.0701 30.834 31.7945C30.866 31.0618 30.9676 30.4901 31.0601 30.5241C31.1525 30.5583 31.6101 31.1579 32.0767 31.8566C32.7952 32.9321 33.0227 33.1364 33.5591 33.1882C34.3456 33.264 34.2936 33.0553 33.0901 31.3098C32.6233 30.6328 32.2415 29.9884 32.2415 29.8778C32.2415 29.7672 32.5932 29.1856 33.0231 28.585C33.453 27.9846 33.8047 27.4198 33.8047 27.3297C33.8047 27.2398 33.5614 27.1661 33.2642 27.1661C32.8316 27.1661 32.5967 27.36 32.0879 28.1376C31.7381 28.6719 31.4005 29.2436 31.3373 29.408C31.0761 30.0887 30.8737 29.6218 30.8737 28.3387V26.9706H30.2826H29.6913L29.7452 30.0488ZM38.2501 27.1067C37.9507 27.1839 37.9081 27.4602 37.9081 29.3302C37.9081 31.2052 37.8605 31.5135 37.5173 31.8566C37.3024 32.0716 36.9683 32.2475 36.7748 32.2475C36.0712 32.2475 35.9541 31.8518 35.9541 29.4723V27.1661H35.2501H34.546L34.615 29.6048C34.6809 31.9346 34.7069 32.0664 35.1983 32.5577C35.8631 33.2224 37.2825 33.4237 37.998 32.9546C38.9029 32.3617 39.0985 31.6704 39.0381 29.2804C38.983 27.1043 38.9211 26.9335 38.2501 27.1067ZM41.2788 27.1116L40.253 27.1866V30.1078V33.0293H40.8392C41.4103 33.0293 41.4254 33.0049 41.4254 32.0769V31.1245L42.4397 31.0272C43.227 30.9516 43.5551 30.8122 43.9052 30.4051C44.5563 29.6482 44.5196 28.5217 43.8191 27.7624C43.2211 27.1143 42.7815 27.0017 41.2788 27.1116ZM46.0173 27.1553C44.3017 27.8577 44.6263 29.9484 46.5398 30.5218C46.9476 30.6439 47.4127 30.8894 47.5735 31.0671C47.833 31.354 47.8322 31.438 47.5655 31.8187C47.2157 32.3185 46.5314 32.3718 45.7383 31.9616C45.2346 31.7011 45.1558 31.7085 44.8521 32.0441C44.5352 32.3943 44.5446 32.4293 45.0419 32.7551C45.3295 32.9437 46.0224 33.1358 46.5817 33.1821C47.4682 33.2556 47.6788 33.1989 48.2246 32.7396C48.7485 32.2987 48.8507 32.0771 48.8507 31.3809C48.8507 30.4207 48.6047 30.1411 47.2363 29.5454C46.1903 29.0902 45.9118 28.6536 46.373 28.1923C46.6393 27.926 46.7991 27.9154 47.4784 28.1189C48.3217 28.3716 48.6553 28.2936 48.6553 27.8437C48.6553 27.2138 46.9568 26.7707 46.0173 27.1553ZM23.2657 28.0303C23.1129 28.2144 22.6787 28.2998 21.978 28.2834C20.5713 28.2504 19.9311 28.7943 19.9311 30.0224C19.9311 30.4811 20.0241 30.9138 20.1381 30.9842C20.2582 31.0585 20.2914 31.3555 20.2172 31.6929C20.0325 32.534 20.5443 33.0293 21.5985 33.0293C22.375 33.0293 23.0144 33.3983 22.7303 33.6824C22.4954 33.9172 21.3794 33.8153 20.9943 33.5241C20.5546 33.1915 19.8139 33.1356 19.6368 33.4219C19.1921 34.1419 20.4229 34.9837 21.9207 34.9837C23.3931 34.9837 24.2212 34.4048 24.227 33.3713C24.2317 32.5182 23.6113 32.0521 22.4713 32.0521C21.934 32.0521 21.4943 31.9641 21.4943 31.8566C21.4943 31.7492 21.806 31.6612 22.187 31.6612C23.4065 31.6612 24.363 30.1135 23.6094 29.3597C23.4331 29.1834 23.4558 29.0452 23.7071 28.7677C23.8872 28.5686 24.0346 28.2586 24.0346 28.079C24.0346 27.6799 23.5803 27.651 23.2657 28.0303ZM25.4608 28.5264C24.315 29.225 23.8886 30.8251 24.5219 32.0499C24.9424 32.8634 25.5634 33.2247 26.5402 33.2247C27.2523 33.2247 27.5067 33.1135 28.0599 32.5602C28.6433 31.9766 28.7242 31.7732 28.7242 30.8892C28.7242 29.6081 28.293 28.7744 27.4475 28.421C26.5648 28.0522 26.2069 28.0712 25.4608 28.5264ZM41.4254 29.1205C41.4254 30.0392 41.4555 30.0977 41.9268 30.0977C42.7262 30.0977 43.184 29.7535 43.184 29.1527C43.184 28.4398 42.8569 28.1433 42.0702 28.1433C41.4267 28.1433 41.4254 28.1452 41.4254 29.1205ZM21.509 29.5913C21.1895 29.9765 21.4261 30.684 21.8744 30.684C22.4059 30.684 22.7883 30.1387 22.5368 29.7392C22.2607 29.3007 21.8046 29.235 21.509 29.5913ZM26.0974 30.1413C25.757 30.6273 25.6881 31.4658 25.9886 31.4658C26.0961 31.4658 26.184 31.3778 26.184 31.2703C26.184 31.1628 26.3253 31.0749 26.498 31.0749C26.6969 31.0749 26.7708 31.1824 26.6995 31.368C26.6377 31.5293 26.6692 31.6612 26.7694 31.6612C27.1014 31.6612 27.3548 30.9209 27.2325 30.3092C27.0871 29.5815 26.5455 29.5014 26.0974 30.1413ZM59.8323 42.6449C59.6666 42.8106 59.5978 43.9549 59.5978 46.5469C59.5978 49.8432 59.6324 50.2317 59.9397 50.3876C60.1277 50.483 61.0512 50.5684 61.9917 50.5772C63.5525 50.5917 63.7536 50.5497 64.2949 50.0941C65.463 49.1108 65.8053 47.1762 65.0671 45.7292C64.5311 44.6781 63.0052 43.9473 62.6265 44.5602C62.5601 44.6677 62.3352 44.7557 62.1265 44.7557C61.798 44.7557 61.7472 44.6148 61.7472 43.7017C61.7472 42.9209 61.6671 42.617 61.4381 42.529C60.9287 42.3336 60.0826 42.3946 59.8323 42.6449ZM4.00173 43.0032C3.75923 43.396 3.90481 50.3003 4.15922 50.4619C4.49922 50.6781 5.43246 50.6535 5.87505 50.4166C6.17792 50.2544 6.25296 50.002 6.25296 49.1462V48.0781L7.08342 48.0639C8.64781 48.0369 9.7743 46.9862 9.83175 45.5003C9.906 43.5826 8.78303 42.8013 5.95301 42.8013C4.90703 42.8013 4.07324 42.8875 4.00173 43.0032ZM17.259 43.2508C16.5491 43.7374 16.0231 44.5335 16.0231 45.1211C16.0231 45.9654 16.6577 46.8852 17.5199 47.2905C17.9839 47.5088 18.5625 47.69 18.8054 47.6935C19.0485 47.6968 19.401 47.8164 19.5892 47.9593C20.4696 48.6279 19.4276 49.2666 18.1238 48.8572C17.667 48.7139 17.2098 48.5237 17.1076 48.435C17.0056 48.3463 16.7197 48.2736 16.4725 48.2736C16.0829 48.2736 16.0235 48.3711 16.026 49.0065C16.0278 49.4097 16.0999 49.851 16.1864 49.9872C16.5811 50.6095 19.4096 50.8421 20.5885 50.3493C21.5676 49.9401 22.0805 49.1654 22.0805 48.0953C22.0805 47.5893 21.9455 46.9952 21.7755 46.7523C21.4248 46.2516 20.054 45.5374 19.4432 45.5374C18.8121 45.5374 18.2143 45.0342 18.5004 44.7437C18.816 44.4236 20.4372 44.4821 20.9365 44.8317C21.5444 45.2576 21.8851 45.0201 21.8851 44.1709C21.8851 43.0997 21.3331 42.7979 19.4006 42.8134C18.1719 42.8232 17.7602 42.9074 17.259 43.2508ZM29.05 42.9316C28.9783 43.0032 28.9196 44.7088 28.9196 46.7218C28.9196 50.6751 28.9042 50.6189 29.9943 50.6189C31.0366 50.6189 31.0691 50.544 31.0691 48.1432V45.905L32.1657 48.0176C32.7687 49.1796 33.401 50.2403 33.5708 50.3746C34.0685 50.7686 35.3191 50.6843 35.5565 50.2409C35.7718 49.8385 35.8445 43.643 35.6401 43.1105C35.5543 42.8871 35.2573 42.8013 34.5691 42.8013C33.7076 42.8013 33.6046 42.8495 33.4897 43.3073C33.4199 43.5856 33.4117 44.288 33.4717 44.868C33.5315 45.4483 33.5178 45.9617 33.4414 46.009C33.3648 46.0563 32.9977 45.5079 32.6252 44.7903C31.615 42.8427 31.5664 42.8013 30.2898 42.8013C29.6795 42.8013 29.1215 42.8599 29.05 42.9316ZM45.668 42.9228C45.5914 42.9992 45.5288 44.6712 45.5288 46.6379C45.5288 49.9737 45.5542 50.2278 45.9067 50.4166C46.4171 50.6898 47.3511 50.6724 47.6392 50.3843C47.7787 50.2448 47.8737 49.5721 47.8737 48.7231V47.2964H48.9402H50.0067L50.0637 48.7905C50.1292 50.5051 50.3265 50.7521 51.4608 50.5393L52.1809 50.4041L52.1278 46.6516L52.0748 42.899H51.0978H50.1208L50.0627 44.2282L50.0047 45.5572L48.988 45.4985L47.9714 45.4397L47.8737 44.1693L47.776 42.899L46.7915 42.8413C46.2499 42.8097 45.7444 42.8462 45.668 42.9228ZM11.8886 44.6275C9.57304 45.6566 9.27739 48.9226 11.3805 50.2395C11.9147 50.5741 12.2796 50.6288 13.6452 50.5798C15.4365 50.5153 15.9011 50.227 15.787 49.251C15.7245 48.7151 14.9771 48.4598 14.5937 48.8433C14.24 49.197 12.8023 49.1001 12.4384 48.6979C12.2606 48.5013 12.115 48.2814 12.115 48.2093C12.115 48.1372 12.9504 48.0781 13.9713 48.0781H15.8277V47.303C15.8277 45.1733 13.7838 43.7851 11.8886 44.6275ZM23.822 44.7906C22.8059 45.3578 22.3813 46.1828 22.3813 47.5895C22.3813 49.6053 23.3589 50.6431 25.274 50.6603C26.6014 50.6722 27.3537 50.268 27.8963 49.2514C29.4255 46.3858 26.5684 43.2578 23.822 44.7906ZM37.5173 44.5577C37.3561 44.6511 37.0704 44.775 36.8823 44.8331C36.5155 44.9466 36.4147 45.8183 36.7138 46.2905C36.8455 46.4984 36.9718 46.5066 37.3038 46.329C37.8396 46.042 39.512 46.1409 39.6189 46.4658C39.6748 46.6356 39.4454 46.7101 38.8664 46.7101C37.6852 46.7101 36.8637 47.0607 36.4803 47.7287C35.9725 48.6138 36.0579 49.3847 36.7392 50.0662C37.2846 50.6116 37.4061 50.648 38.3513 50.5471C39.7264 50.4004 39.6814 50.4006 40.377 50.5368C40.7139 50.6026 41.1757 50.5571 41.4029 50.4353C41.7812 50.2329 41.8154 50.0536 41.8068 48.3156C41.7957 46.06 41.4791 45.2222 40.4472 44.7174C39.726 44.3648 38.0115 44.2712 37.5173 44.5577ZM6.25296 45.4397C6.25296 46.2271 6.30005 46.3192 6.70238 46.3192C7.26241 46.3192 7.62077 45.976 7.62077 45.4397C7.62077 44.9034 7.26241 44.5602 6.70238 44.5602C6.30005 44.5602 6.25296 44.6523 6.25296 45.4397ZM53.2799 44.886C53.2081 44.9576 53.1495 45.9561 53.1495 47.1047C53.1495 48.9602 53.1995 49.267 53.5986 49.857C54.0306 50.4963 54.091 50.5198 55.2106 50.4871C55.8502 50.4684 56.4616 50.4449 56.5691 50.4349C56.6765 50.425 57.0402 50.4709 57.377 50.5368C57.7139 50.6026 58.1782 50.5557 58.4084 50.4326C58.8095 50.2178 58.8248 50.0957 58.7728 47.5309L58.7185 44.8534L57.6926 44.7944L56.6668 44.7351V46.5631C56.6668 48.4485 56.5198 48.8599 55.8461 48.8599C55.4498 48.8599 55.4576 48.9033 55.4918 46.9018C55.526 44.8858 55.4558 44.7557 54.3337 44.7557C53.8256 44.7557 53.3514 44.8143 53.2799 44.886ZM12.5547 46.1298C11.8624 46.4081 12.0402 46.7101 12.8966 46.7101C13.7046 46.7101 13.8477 46.5668 13.4438 46.1628C13.1743 45.8933 13.1458 45.8922 12.5547 46.1298ZM24.6522 46.6215C24.1827 47.6523 24.5543 49.0553 25.2971 49.0553C25.9501 49.0553 26.184 48.6688 26.184 47.5895C26.184 47.0413 26.0785 46.4873 25.9495 46.3583C25.5454 45.9541 24.8961 46.0858 24.6522 46.6215ZM61.9563 46.4005C61.8209 46.5637 61.7509 47.1449 61.7859 47.8174C61.8375 48.8136 61.8981 48.9652 62.2656 49.0176C63.1799 49.148 63.7173 47.1389 62.953 46.4472C62.5155 46.051 62.2562 46.0389 61.9563 46.4005ZM38.4293 48.2085C38.3576 48.28 38.2989 48.5056 38.2989 48.7094C38.2989 49.0098 38.4193 49.0684 38.934 49.0188C39.4207 48.9719 39.5837 48.855 39.6316 48.5179C39.684 48.1485 39.6032 48.0781 39.1267 48.0781C38.8148 48.0781 38.5008 48.1368 38.4293 48.2085Z" fill="white"/>
<path fill-rule="evenodd" clip-rule="evenodd" d="M25.031 12.7526C24.3727 14.4959 24.8169 17.4801 26.1059 19.9733C26.5712 20.8731 27.922 22.2554 29.0155 22.9512C30.0413 23.6036 32.4288 24.6255 32.9274 24.6255C33.447 24.6255 33.2362 24.2507 32.4301 23.7419C31.0193 22.8511 29.3078 20.9606 28.7017 19.6236C28.1571 18.4223 27.9699 17.3943 28.2958 17.3943C28.3826 17.3943 28.6124 17.7544 28.8066 18.1948C29.2437 19.1855 30.1617 20.2508 30.9134 20.6395L31.4815 20.9335L31.3521 20.1898C31.1534 19.0485 30.032 16.3942 29.2531 15.2217C28.535 14.1404 27.0775 12.8853 26.1157 12.5196C25.3484 12.2276 25.2188 12.2556 25.031 12.7526ZM41.8116 12.7879C40.2318 13.6184 39.2575 14.8993 37.7044 18.1877C37.5022 18.6159 37.0756 20.731 37.172 20.8273C37.4182 21.0736 38.9011 19.607 39.4527 18.572C40.1456 17.2719 40.4987 17.0528 40.3267 18.0294C40.0278 19.7264 37.9411 22.6012 36.2487 23.6473C35.8931 23.8672 35.5478 24.1885 35.4813 24.3615C35.3051 24.821 36.2968 24.5851 38.0683 23.7458C41.9533 21.9056 44.2045 17.8438 43.647 13.6809C43.4459 12.1789 43.1988 12.0587 41.8116 12.7879ZM23.1559 28.3377C23.0899 28.4446 22.558 28.521 21.974 28.5075C20.8055 28.4806 20.4805 28.6567 20.128 29.5078C19.9338 29.9767 19.9469 30.1872 20.2022 30.6988C20.3773 31.0502 20.4614 31.523 20.3951 31.7866C20.2378 32.4132 20.6286 32.8334 21.3715 32.8367C22.4502 32.8414 22.8882 33.04 22.8234 33.4946C22.7759 33.8276 22.6077 33.9204 21.966 33.9675C21.4261 34.007 21.0859 33.9279 20.9161 33.7232C20.7779 33.5565 20.5409 33.4203 20.3894 33.4203C19.9461 33.4203 19.8544 33.9888 20.2308 34.4047C20.5045 34.7075 20.8336 34.7884 21.7913 34.7884C23.2451 34.7884 24.0345 34.3125 24.0345 33.4363C24.0345 32.6806 23.4772 32.2559 22.3026 32.1167C21.7506 32.0513 21.2988 31.9315 21.2988 31.8505C21.2988 31.6492 21.8186 31.4659 22.3896 31.4659C23.3474 31.4659 24.0583 30.0044 23.4139 29.3599C23.2376 29.1836 23.2603 29.0454 23.5116 28.7679C23.6917 28.5687 23.8391 28.3467 23.8391 28.2746C23.8391 28.07 23.29 28.1206 23.1559 28.3377ZM25.5709 28.6445C25.2915 28.7909 24.9195 29.2131 24.744 29.5827C23.5639 32.0702 26.3199 34.4524 28.0285 32.4214C28.4302 31.944 28.5287 31.6187 28.5287 30.77C28.5287 29.8856 28.441 29.6202 27.9914 29.1429C27.3571 28.47 26.3138 28.255 25.5709 28.6445ZM21.4104 29.4277C21.0505 29.7879 21.031 29.988 21.3057 30.5016C21.6828 31.2064 22.6667 30.8438 22.6667 30.0001C22.6667 29.1961 21.9628 28.8754 21.4104 29.4277ZM26.0004 29.8905C25.5184 30.3726 25.4314 31.6614 25.881 31.6614C26.037 31.6614 26.2541 31.5075 26.3637 31.3193C26.4733 31.1311 26.5655 31.0696 26.5688 31.1825C26.572 31.2955 26.4792 31.4833 26.3623 31.6002C26.008 31.9545 26.4752 32.061 26.9436 31.7329C27.3032 31.481 27.3663 31.2759 27.3174 30.5196C27.268 29.7541 27.1906 29.5995 26.8309 29.5485C26.5927 29.5144 26.2249 29.6659 26.0004 29.8905ZM59.9885 46.4778V50.1779L61.6006 50.2782C63.9835 50.4265 64.7932 49.8972 65.1856 47.9344C65.3451 47.1369 64.9343 45.776 64.3608 45.2024C63.8668 44.7083 63.179 44.663 62.0017 45.0468C61.5965 45.1789 61.5691 45.1228 61.5132 44.043L61.454 42.8991L60.7213 42.8386L59.9885 42.7778V46.4778ZM4.19001 43.2484C4.13705 43.3866 4.1179 44.9917 4.14741 46.8152L4.20115 50.1304H4.98276H5.76436L5.86207 49.0555L5.95977 47.9806L6.93678 47.8754C8.15628 47.7443 8.70908 47.4439 9.19367 46.6488C9.93327 45.4356 9.60441 44.087 8.40445 43.4124C7.80905 43.0778 7.33657 42.9969 5.97579 42.9969C4.77895 42.9969 4.2584 43.0701 4.19001 43.2484ZM17.3724 43.4806C16.9863 43.7339 16.5566 44.2154 16.4177 44.5508C16.2016 45.0726 16.2135 45.2673 16.4996 45.9019C16.8665 46.7161 17.5147 47.1812 18.5632 47.3831C19.6477 47.5918 20.1264 47.9026 20.1264 48.3976C20.1264 49.2978 18.6074 49.4962 17.177 48.7825C16.2831 48.3365 16.1873 48.3799 16.2555 49.2021C16.3145 49.9152 16.345 49.942 17.3855 50.1963C19.8462 50.7978 21.8851 49.8519 21.8851 48.1088C21.8851 46.968 21.2924 46.3694 19.7432 45.9453C18.3756 45.5708 17.9397 45.1698 18.291 44.6092C18.5802 44.1476 19.9617 44.0587 20.7482 44.4511C21.6005 44.8764 21.6897 44.8434 21.6897 44.1032C21.6897 43.255 21.1376 42.9929 19.3845 43.0084C18.3502 43.0174 17.927 43.1169 17.3724 43.4806ZM29.2056 43.238C29.1503 43.3821 29.1294 44.9917 29.1589 46.8152L29.2126 50.1304L30.0431 50.1904L30.8736 50.2506V47.894C30.8736 46.598 30.9396 45.538 31.0201 45.5384C31.1006 45.5387 31.4715 46.1323 31.8443 46.8576C32.217 47.5827 32.7873 48.6417 33.1117 49.2109C33.6995 50.242 33.7049 50.2455 34.5837 50.1881L35.4655 50.1304V46.6125V43.0946L34.6425 43.0348L33.8196 42.9752L33.7632 44.7779C33.7024 46.7247 33.4507 47.1586 33.007 46.0825C32.8612 45.7289 32.4221 44.9122 32.0313 44.2672C31.3238 43.0993 31.3169 43.0944 30.3133 43.0354C29.6081 42.9939 29.276 43.0547 29.2056 43.238ZM46.0499 43.1272C45.9782 43.1987 45.9195 44.8258 45.9195 46.7429V50.2281H46.6929H47.4663L47.5234 48.7135L47.5805 47.1988L48.891 47.1412L50.2016 47.0837L50.2588 48.607L50.3161 50.1304H51.0977H51.8793V46.6125V43.0946H51.0977H50.3161L50.2583 44.4138L50.2006 45.733H48.9602C47.5328 45.733 47.4828 45.6761 47.4828 44.0557V42.9969H46.8315C46.4731 42.9969 46.1214 43.0555 46.0499 43.1272ZM5.94062 44.6376C5.88317 44.7875 5.86382 45.2491 5.89782 45.6636C5.95508 46.359 6.00959 46.4219 6.60752 46.4792C6.96394 46.5134 7.38151 46.4368 7.53569 46.3088C7.87608 46.0262 7.90578 44.9237 7.58161 44.5995C7.25587 44.2737 6.06958 44.3012 5.94062 44.6376ZM11.8058 44.9452C11.1114 45.2262 10.3876 46.2703 10.2496 47.19C10.0978 48.204 10.5392 49.2959 11.3361 49.8773C11.9795 50.3466 13.5633 50.523 14.6063 50.2416C15.3549 50.0397 15.4368 49.9584 15.4368 49.4161C15.4368 48.8798 15.3891 48.8301 14.9971 48.9587C13.432 49.4724 11.9195 49.1372 11.9195 48.2765C11.9195 47.9329 12.088 47.8922 13.727 47.8414L15.5345 47.7851L15.477 47.0034C15.4012 45.972 15.0808 45.3701 14.4275 45.0324C13.8441 44.7304 12.451 44.6841 11.8058 44.9452ZM23.7138 45.1557C22.9566 45.6408 22.5887 46.4866 22.6069 47.6991C22.6219 48.6863 23.0559 49.6201 23.6814 50.0108C24.3342 50.4187 25.8232 50.4978 26.615 50.167C27.4597 49.814 28.1379 48.6662 28.1379 47.5897C28.1379 46.6578 27.5302 45.5196 26.8074 45.0978C26.0008 44.627 24.4948 44.6552 23.7138 45.1557ZM37.1753 44.9473C36.7464 45.1295 36.5705 45.8034 36.8988 46.0062C36.9885 46.0617 37.3808 46.0092 37.7705 45.8896C38.7078 45.6019 39.7644 45.8853 39.7644 46.4243C39.7644 46.7391 39.5867 46.8296 38.7735 46.9289C37.1479 47.1273 36.5402 47.6376 36.5402 48.8038C36.5402 50.0589 37.8586 50.7693 39.068 50.166C39.4048 49.9979 39.7114 49.9469 39.7741 50.0485C39.8351 50.1472 40.2316 50.2281 40.6552 50.2281H41.4253V48.0892C41.4253 46.1151 41.3893 45.9083 40.9579 45.4068C40.5356 44.9159 40.3514 44.8582 39.0527 44.8119C38.2619 44.7836 37.4172 44.8445 37.1753 44.9473ZM53.3448 46.8142C53.3448 49.7972 53.9685 50.7015 55.727 50.2684C56.1901 50.1543 56.9865 50.1099 57.4971 50.1699L58.4253 50.2789V47.6151V44.9513H57.6437H56.8621V46.9105C56.8621 48.8339 56.8529 48.8731 56.3609 49.0604C55.7278 49.301 55.7733 49.3066 55.4104 48.9439C55.1748 48.708 55.1034 48.2086 55.1034 46.7941V44.9513H54.2241H53.3448V46.8142ZM12.154 45.9675C12.0251 46.0965 11.9195 46.3604 11.9195 46.5539C11.9195 46.8456 12.086 46.9057 12.8965 46.9057C13.7968 46.9057 13.8736 46.8689 13.8736 46.438C13.8736 45.7629 12.684 45.4375 12.154 45.9675ZM24.7213 46C24.1982 46.3825 24.0525 48.4592 24.5159 48.9228C24.9284 49.3354 25.6708 49.3453 26.0723 48.9439C26.5438 48.4723 26.4889 46.6244 25.9885 46.1239C25.5293 45.6646 25.221 45.6345 24.7213 46ZM61.7868 46.0952C61.6072 46.2093 61.5502 46.6778 61.5914 47.7046C61.6479 49.1149 61.6633 49.1548 62.1749 49.214C62.9975 49.309 63.5057 48.663 63.5057 47.5223C63.5057 46.2224 62.6743 45.5321 61.7868 46.0952ZM38.8366 47.8273C38.4612 47.8842 38.2629 48.056 38.1769 48.3986C38.0147 49.0443 38.2975 49.2935 39.1045 49.2163C39.7126 49.1581 39.7691 49.0957 39.8249 48.4203C39.8677 47.9049 39.8097 47.696 39.6295 47.7167C39.4888 47.7327 39.132 47.7826 38.8366 47.8273Z" fill="white" fill-opacity="0.606"/>
</svg>
