<svg width="190" height="169" viewBox="0 0 190 169" fill="none" xmlns="http://www.w3.org/2000/svg">
<path fill-rule="evenodd" clip-rule="evenodd" d="M92.4278 14.7313C92.0549 14.9688 91.9037 15.6824 92.0817 16.3648C92.3667 17.456 92.7445 17.5764 95.8833 17.5764H99.3683V15.9347C99.3683 14.3001 99.3552 14.293 96.2289 14.3012C94.5026 14.3061 92.7915 14.4993 92.4278 14.7313ZM84.7634 16.7358C83.1872 17.4713 81.897 18.25 81.897 18.4656C81.897 18.6818 82.2945 19.298 82.7799 19.8359C83.624 20.7711 83.7845 20.752 86.4652 19.4025C89.9234 17.6617 89.7105 17.8795 89.2808 16.523C88.8222 15.075 88.267 15.1007 84.7634 16.7358ZM102.073 16.529C101.35 17.8828 101.102 17.6344 104.877 19.3401C107.848 20.6825 107.946 20.6912 108.581 19.6728C109.435 18.3026 108.987 17.6771 106.262 16.437C103.377 15.1237 102.817 15.1363 102.073 16.529ZM76.3423 22.6049C74.1251 25.0122 74.0011 25.607 75.5184 26.5663C76.2828 27.0495 76.8184 26.7201 78.5671 24.6904C80.21 22.7838 80.5747 22.0117 80.1816 21.2702C79.4172 19.826 78.6588 20.0893 76.3423 22.6049ZM110.805 21.1679C110.201 21.8973 110.466 22.392 112.615 24.5465C114.765 26.7004 115.258 26.9663 115.986 26.3605C117.266 25.2962 117.045 24.5662 114.769 22.3389C112.476 20.0942 111.848 19.9087 110.805 21.1679ZM93.6721 23.1855C93.8834 23.8624 94.3295 24.5979 94.6647 24.819C95.7179 25.5145 97.7304 25.2798 97.7304 24.4616C97.7304 24.0348 97.8794 23.296 98.0618 22.8199C98.3348 22.1064 97.9438 21.9542 95.8413 21.9542C93.445 21.9542 93.3123 22.0292 93.6721 23.1855ZM88.5853 23.1625C87.2733 23.8039 87.0784 24.4967 87.8607 25.7356C88.6464 26.9789 91.8327 25.4505 91.616 23.9341C91.4243 22.5967 90.3187 22.3154 88.5853 23.1625ZM100.233 23.4017C100.057 23.8586 99.9143 24.4523 99.9143 24.721C99.9143 25.213 103.163 27.113 103.44 26.783C103.522 26.6856 103.877 26.0492 104.23 25.3695C104.9 24.0786 104.926 24.1005 101.188 22.7931C100.838 22.6711 100.407 22.9447 100.233 23.4017ZM82.9475 27.1973C81.6453 28.5861 81.6415 28.6217 82.6953 29.3944C83.6578 30.0998 83.9024 30.0434 85.1085 28.8346C86.2359 27.704 86.3375 27.3532 85.7451 26.6369C84.7951 25.4899 84.491 25.5506 82.9475 27.1973ZM106.029 26.4415C105.101 27.3724 105.215 28.2069 106.421 29.3008C107.255 30.0582 107.697 30.1266 108.605 29.6401C110.054 28.8619 110.035 28.44 108.478 26.9745C107.01 25.5922 106.901 25.5681 106.029 26.4415ZM71.5371 30.1299C70.7919 31.9335 71.0326 32.6427 72.5237 33.0335C73.8826 33.3897 75.3704 29.767 74.1764 29.0091C72.8873 28.1905 72.2218 28.4728 71.5371 30.1299ZM116.925 29.0042C115.863 29.6784 117.655 33.1221 118.832 32.6696C119.287 32.4944 119.862 32.3516 120.109 32.3516C120.65 32.3516 120.174 30.166 119.424 29.205C118.805 28.4121 117.963 28.3442 116.925 29.0042ZM94.4545 31.2572C94.4545 32.5032 94.7035 32.8989 95.488 32.8989C96.509 32.8989 97.1844 31.9007 97.1844 30.3914C97.1844 29.9285 96.6335 29.6155 95.8195 29.6155C94.6669 29.6155 94.4545 29.871 94.4545 31.2572ZM99.1215 31.6211C98.6689 33.4291 99.5386 34.4393 100.71 33.4652C101.849 32.518 101.771 31.4126 100.516 30.74C99.6451 30.2727 99.424 30.4122 99.1215 31.6211ZM78.9084 32.3243C77.7744 34.5225 77.8503 34.917 79.4674 35.2268C80.6211 35.4479 80.9836 35.2011 81.5853 33.7859C82.2137 32.3084 82.1957 31.9855 81.4542 31.394C80.2023 30.3953 79.8338 30.5299 78.9084 32.3243ZM90.167 31.1959C89.5904 31.562 89.5647 31.9215 90.0496 32.8294C90.7877 34.2122 93.1218 34.4853 92.602 33.1276C92.4196 32.6515 92.2706 31.9127 92.2706 31.4859C92.2706 30.6191 91.2889 30.4834 90.167 31.1959ZM109.791 31.7623C109.144 32.1732 109.135 32.5256 109.737 33.9813C110.353 35.4725 110.649 35.6629 111.871 35.3554C113.772 34.8771 113.769 34.8842 112.771 32.9497C111.872 31.2085 111.13 30.9124 109.791 31.7623ZM103.017 34.43C102.511 34.9898 102.098 35.7362 102.098 36.0887C102.098 37.0195 104.029 36.8739 104.851 35.8813C105.428 35.1841 105.409 34.888 104.745 34.2226C104.03 33.5068 103.829 33.5309 103.017 34.43ZM69.5749 34.6018C68.7925 35.8703 68.6238 44.4066 69.3177 47.6041C70.4643 52.8881 73.2793 58.043 76.9188 61.5223C81.9211 66.3046 93.3626 71.3977 93.3626 68.8421C93.3626 68.3666 92.4415 67.3038 91.3151 66.4808C86.8256 63.199 82.3103 58.321 80.745 55.0617C78.8117 51.0363 78.6048 48.4183 80.5075 52.0519C81.2162 53.4063 82.4949 55.1761 83.3482 55.9849C84.9409 57.4936 87.9688 59.282 88.3259 58.9241C88.4362 58.8141 88.1103 57.0378 87.6025 54.9774C86.4128 50.1492 83.0616 43.0965 80.5883 40.2153C77.0575 36.1018 70.6603 32.8414 69.5749 34.6018ZM86.4412 34.8694C85.9067 36.266 88.493 37.4387 89.2825 36.1582C89.7263 35.438 88.5672 33.9933 87.5457 33.9933C87.1226 33.9933 86.6257 34.3873 86.4412 34.8694ZM116.788 35.3543C113.606 37.0157 109.419 41.5894 107.117 45.9175C105.086 49.7372 102.818 57.9177 103.579 58.68C104.445 59.5485 108.218 56.1666 110.445 52.5242C112.348 49.4132 112.533 49.2463 112.192 50.9575C111.283 55.5022 107.117 61.1672 101.495 65.5029C98.4827 67.8264 97.3913 69.571 98.9588 69.5573C99.3344 69.554 100.82 69.1929 102.26 68.7551C111.297 66.0069 118.937 58.5301 121.564 49.863C122.523 46.6978 122.866 38.1725 122.14 35.4982C121.627 33.6026 120.215 33.5648 116.788 35.3543ZM84.8344 39.1657C84.4091 40.2766 85.0424 41.1073 86.314 41.1073C87.6434 41.1073 88.3385 39.5308 87.3 38.8713C86.1666 38.1523 85.1773 38.2705 84.8344 39.1657ZM104.419 38.7334C103.634 39.0508 103.484 40.5601 104.237 40.5601C104.513 40.5601 105.127 40.7095 105.602 40.8923C106.254 41.1429 106.466 40.8737 106.466 39.7978C106.466 38.4259 105.903 38.1331 104.419 38.7334ZM86.4013 43.1693C85.0036 43.4002 84.9605 43.5173 85.7353 44.9686C86.2108 45.8595 86.4625 45.918 87.3732 45.3478C89.2797 44.1543 88.6732 42.7939 86.4013 43.1693ZM103.19 43.7767C103.19 44.3415 103.585 45.1328 104.068 45.5344C104.814 46.155 105.061 46.1079 105.706 45.2231C106.741 43.8052 106.669 43.4785 105.238 43.0938C103.385 42.5963 103.19 42.6615 103.19 43.7767ZM88.333 47.3261C87.4676 47.9849 87.4638 48.131 88.2828 49.3032C89.1285 50.5126 89.1995 50.5241 89.9 49.5637C91.5172 47.3474 90.4001 45.7522 88.333 47.3261ZM100.718 47.1515C100.503 47.4995 100.846 48.304 101.48 48.9393C102.396 49.8575 102.771 49.955 103.308 49.4165C103.806 48.9174 103.828 48.4895 103.392 47.7956C102.665 46.6393 101.245 46.2973 100.718 47.1515ZM92.2766 49.5823C91.3736 50.6724 91.9709 52.0519 93.3456 52.0519C94.2137 52.0519 94.4545 51.6957 94.4545 50.4103C94.4545 48.6142 93.4079 48.2164 92.2766 49.5823ZM97.0026 49.1336C96.8022 49.3339 96.6384 50.0726 96.6384 50.7753C96.6384 51.7641 96.9387 52.0519 97.9711 52.0519C99.7243 52.0519 100.055 51.4029 99.0418 49.9522C98.1863 48.7281 97.6294 48.5048 97.0026 49.1336ZM83.1118 84.2018L83.262 92.8207H84.6269C85.9334 92.8207 85.999 92.6614 86.154 89.0897C86.2436 87.0381 86.5275 85.4374 86.7857 85.5327C87.044 85.6284 88.3226 87.3073 89.6264 89.2637C91.634 92.2751 92.2695 92.8469 93.7682 92.992C95.9658 93.2043 95.8205 92.6198 92.4579 87.7325C91.1535 85.8369 90.0867 84.0327 90.0867 83.723C90.0867 83.4132 91.0695 81.7847 92.2706 80.103C93.4717 78.4219 94.4545 76.8404 94.4545 76.5882C94.4545 76.3364 93.7748 76.1301 92.9443 76.1301C91.7355 76.1301 91.0793 76.673 89.6576 78.8504C88.6803 80.3465 87.7368 81.9472 87.5605 82.4074C86.8305 84.3134 86.2649 83.0061 86.2649 79.4135V75.5829H84.6133H82.9612L83.1118 84.2018ZM106.875 75.9638C106.039 76.1799 105.92 76.9537 105.92 82.1896C105.92 87.4398 105.787 88.3027 104.828 89.2637C104.227 89.8656 103.294 90.3581 102.753 90.3581C100.787 90.3581 100.46 89.25 100.46 82.5874V76.1301H98.4931H96.5259L96.7187 82.9585C96.9027 89.482 96.9753 89.8509 98.3484 91.2266C100.206 93.0877 104.172 93.6514 106.171 92.338C108.7 90.6777 109.246 88.7422 109.077 82.0501C108.923 75.9572 108.75 75.4789 106.875 75.9638ZM115.338 75.9774L112.472 76.1876V84.3671V92.5471H114.11C115.706 92.5471 115.748 92.4787 115.748 89.8804V87.2137L118.582 86.9412C120.782 86.7294 121.698 86.3393 122.677 85.1994C124.496 83.08 124.393 79.9257 122.436 77.7997C120.765 75.9851 119.537 75.6699 115.338 75.9774ZM128.578 76.1C123.784 78.0668 124.691 83.9205 130.038 85.5261C131.177 85.8681 132.477 86.5554 132.926 87.0529C133.651 87.8562 133.649 88.0915 132.904 89.1575C131.927 90.5568 130.015 90.7062 127.798 89.5575C126.391 88.8281 126.171 88.8489 125.322 89.7885C124.437 90.7691 124.463 90.8671 125.853 91.7793C126.656 92.3074 128.592 92.8453 130.155 92.975C132.632 93.1808 133.221 93.0221 134.745 91.7361C136.209 90.5015 136.495 89.881 136.495 87.9317C136.495 85.2432 135.807 84.4601 131.984 82.7921C129.061 81.5176 128.283 80.2951 129.572 79.0036C130.316 78.2578 130.763 78.2282 132.66 78.7979C135.017 79.5054 135.949 79.2871 135.949 78.0274C135.949 76.2636 131.203 75.0231 128.578 76.1ZM65.0072 78.55C64.5803 79.0655 63.3671 79.3046 61.4092 79.2586C57.4788 79.1662 55.6901 80.6891 55.6901 84.1279C55.6901 85.4123 55.95 86.6238 56.2683 86.8208C56.6041 87.0288 56.6969 87.8606 56.4894 88.8051C55.9735 91.1604 57.4034 92.5471 60.349 92.5471C62.5187 92.5471 64.3051 93.5802 63.5113 94.3759C62.855 95.0331 59.7369 94.748 58.6608 93.9326C57.4324 93.0013 55.3626 92.8448 54.8679 93.6465C53.6253 95.6625 57.0644 98.0194 61.2493 98.0194C65.3632 98.0194 67.6771 96.3985 67.6934 93.5047C67.7065 91.1161 65.9731 89.8109 62.7878 89.8109C61.2864 89.8109 60.058 89.5647 60.058 89.2637C60.058 88.9627 60.9288 88.7164 61.9934 88.7164C65.4009 88.7164 68.0734 84.3829 65.9676 82.2722C65.4751 81.7786 65.5385 81.3918 66.2406 80.6147C66.744 80.0571 67.1557 79.1891 67.1557 78.6862C67.1557 77.5688 65.8863 77.4878 65.0072 78.55ZM71.1407 79.9389C67.9391 81.8952 66.7478 86.3754 68.5173 89.8049C69.6923 92.0825 71.4274 93.0943 74.1567 93.0943C76.1463 93.0943 76.8571 92.7829 78.4028 91.2337C80.0331 89.5997 80.2591 89.03 80.2591 86.5549C80.2591 82.9678 79.0541 80.6333 76.6917 79.6439C74.2255 78.6113 73.2253 78.6644 71.1407 79.9389ZM115.748 81.6024C115.748 84.175 115.832 84.3386 117.149 84.3386C119.382 84.3386 120.661 83.3749 120.661 81.6927C120.661 79.6964 119.747 78.8663 117.549 78.8663C115.751 78.8663 115.748 78.8717 115.748 81.6024ZM60.0989 82.9207C59.2062 83.9993 59.8674 85.9803 61.1199 85.9803C62.6049 85.9803 63.6734 84.4535 62.9707 83.335C62.1993 82.107 60.925 81.9231 60.0989 82.9207ZM72.9195 84.4606C71.9684 85.8216 71.7757 88.1692 72.6154 88.1692C72.9157 88.1692 73.1614 87.923 73.1614 87.622C73.1614 87.321 73.5561 87.0748 74.0388 87.0748C74.5946 87.0748 74.801 87.3757 74.6017 87.8956C74.4292 88.3471 74.5171 88.7164 74.7971 88.7164C75.7248 88.7164 76.4329 86.6435 76.0911 84.9307C75.6849 82.8934 74.1715 82.669 72.9195 84.4606ZM167.179 119.471C166.716 119.935 166.523 123.139 166.523 130.396C166.523 139.626 166.62 140.714 167.479 141.15C168.004 141.418 170.584 141.657 173.212 141.681C177.574 141.722 178.135 141.604 179.648 140.329C182.911 137.575 183.868 132.158 181.805 128.107C180.308 125.164 176.044 123.118 174.986 124.834C174.8 125.135 174.172 125.381 173.589 125.381C172.671 125.381 172.529 124.986 172.529 122.43C172.529 120.244 172.305 119.393 171.665 119.146C170.242 118.599 167.878 118.77 167.179 119.471ZM11.1815 120.474C10.504 121.574 10.9107 140.906 11.6216 141.358C12.5716 141.964 15.1792 141.895 16.4158 141.231C17.2621 140.777 17.4717 140.071 17.4717 137.674V134.684L19.7922 134.644C24.1632 134.568 27.3108 131.626 27.4713 127.466C27.6788 122.096 24.5411 119.909 16.6337 119.909C13.7111 119.909 11.3814 120.15 11.1815 120.474ZM48.2239 121.167C46.2404 122.53 44.7706 124.759 44.7706 126.404C44.7706 128.768 46.5439 131.344 48.9528 132.479C50.2495 133.09 51.8661 133.597 52.5448 133.607C53.224 133.616 54.2089 133.951 54.7347 134.351C57.1949 136.223 54.2832 138.012 50.6404 136.865C49.3639 136.464 48.0863 135.932 47.8008 135.683C47.5158 135.435 46.717 135.231 46.0263 135.231C44.9377 135.231 44.7717 135.504 44.7788 137.283C44.7837 138.412 44.9852 139.648 45.227 140.029C46.3299 141.772 54.2329 142.423 57.5268 141.043C60.2627 139.897 61.6959 137.728 61.6959 134.732C61.6959 133.315 61.3186 131.652 60.8436 130.971C59.8636 129.569 56.0336 127.57 54.3268 127.57C52.5633 127.57 50.8932 126.161 51.6925 125.348C52.5742 124.451 57.1042 124.615 58.4992 125.594C60.1977 126.786 61.1499 126.121 61.1499 123.744C61.1499 120.744 59.6075 119.899 54.2078 119.943C50.7747 119.97 49.6243 120.206 48.2239 121.167ZM81.1693 120.274C80.9689 120.474 80.8051 125.25 80.8051 130.886C80.8051 141.955 80.762 141.798 83.808 141.798C86.7202 141.798 86.8108 141.588 86.8108 134.866V128.599L89.8749 134.514C91.5597 137.768 93.3265 140.738 93.801 141.114C95.1916 142.217 98.6858 141.981 99.3492 140.74C99.9509 139.613 100.154 122.266 99.5829 120.774C99.3432 120.149 98.5133 119.909 96.5904 119.909C94.1832 119.909 93.8954 120.044 93.5744 121.325C93.3795 122.105 93.3566 124.071 93.5242 125.696C93.6912 127.32 93.653 128.758 93.4395 128.89C93.2255 129.023 92.1996 127.487 91.159 125.478C88.3363 120.025 88.2003 119.909 84.6335 119.909C82.9284 119.909 81.3691 120.073 81.1693 120.274ZM127.602 120.249C127.388 120.463 127.213 125.145 127.213 130.651C127.213 139.991 127.284 140.703 128.269 141.231C129.695 141.997 132.305 141.948 133.11 141.141C133.5 140.75 133.765 138.867 133.765 136.49V132.495H136.745H139.725L139.884 136.679C140.067 141.479 140.618 142.171 143.788 141.575L145.8 141.196L145.651 130.69L145.503 120.182H142.773H140.044L139.881 123.904L139.719 127.625L136.879 127.461L134.038 127.296L133.765 123.739L133.492 120.182L130.741 120.021C129.228 119.932 127.815 120.034 127.602 120.249ZM33.2183 125.022C26.7484 127.904 25.9224 137.048 31.7987 140.736C33.2914 141.673 34.3108 141.826 38.1266 141.688C43.1316 141.508 44.4299 140.701 44.1111 137.968C43.9363 136.467 41.848 135.753 40.7768 136.826C39.7886 137.817 35.7713 137.545 34.7547 136.419C34.2578 135.869 33.8511 135.253 33.8511 135.051C33.8511 134.849 36.1851 134.684 39.0378 134.684H44.2246V132.514C44.2246 126.55 38.5137 122.663 33.2183 125.022ZM66.5616 125.479C63.7226 127.067 62.5361 129.377 62.5361 133.316C62.5361 138.96 65.2677 141.866 70.6188 141.914C74.3276 141.947 76.4296 140.816 77.9458 137.969C82.2186 129.945 74.2353 121.187 66.5616 125.479ZM104.828 124.827C104.378 125.088 103.579 125.435 103.054 125.598C102.029 125.916 101.747 128.356 102.583 129.678C102.951 130.261 103.304 130.284 104.231 129.786C105.728 128.983 110.401 129.26 110.7 130.169C110.856 130.645 110.215 130.853 108.598 130.853C105.297 130.853 103.002 131.835 101.931 133.705C100.512 136.184 100.75 138.342 102.654 140.25C104.178 141.778 104.517 141.879 107.158 141.597C111 141.186 110.875 141.187 112.818 141.568C113.76 141.752 115.05 141.625 115.685 141.284C116.742 140.717 116.837 140.215 116.813 135.349C116.782 129.033 115.898 126.687 113.014 125.274C110.999 124.286 106.209 124.024 104.828 124.827ZM17.4717 127.296C17.4717 129.501 17.6033 129.759 18.7275 129.759C20.2923 129.759 21.2936 128.798 21.2936 127.296C21.2936 125.795 20.2923 124.834 18.7275 124.834C17.6033 124.834 17.4717 125.091 17.4717 127.296ZM148.87 125.746C148.67 125.946 148.506 128.742 148.506 131.958C148.506 137.154 148.646 138.013 149.761 139.665C150.968 141.455 151.137 141.52 154.265 141.429C156.052 141.377 157.761 141.311 158.061 141.283C158.361 141.255 159.377 141.384 160.318 141.568C161.26 141.752 162.557 141.621 163.2 141.276C164.321 140.675 164.364 140.333 164.218 133.152L164.067 125.655L161.2 125.489L158.334 125.323V130.442C158.334 135.721 157.923 136.873 156.041 136.873C154.933 136.873 154.955 136.994 155.051 131.39C155.146 125.745 154.95 125.381 151.815 125.381C150.395 125.381 149.07 125.545 148.87 125.746ZM35.0795 129.229C33.1451 130.008 33.6419 130.853 36.035 130.853C38.2926 130.853 38.6922 130.452 37.5637 129.321C36.8108 128.566 36.7311 128.563 35.0795 129.229ZM68.8815 130.605C67.5695 133.491 68.608 137.42 70.6832 137.42C72.5079 137.42 73.1614 136.338 73.1614 133.316C73.1614 131.781 72.8666 130.229 72.5062 129.868C71.3772 128.737 69.5629 129.105 68.8815 130.605ZM173.113 129.986C172.735 130.443 172.54 132.071 172.637 133.954C172.781 136.743 172.951 137.168 173.978 137.314C176.532 137.679 178.034 132.054 175.898 130.117C174.676 129.008 173.951 128.974 173.113 129.986ZM107.376 135.049C107.176 135.249 107.012 135.881 107.012 136.451C107.012 137.293 107.348 137.457 108.786 137.318C110.146 137.186 110.602 136.859 110.736 135.915C110.882 134.881 110.656 134.684 109.325 134.684C108.453 134.684 107.576 134.848 107.376 135.049Z" fill="black" fill-opacity="0.243"/>
<path fill-rule="evenodd" clip-rule="evenodd" d="M69.9396 35.7718C68.1002 40.6531 69.3412 49.0088 72.943 55.9898C74.243 58.5093 78.0173 62.3799 81.0726 64.328C83.939 66.1547 90.6097 69.0161 92.0031 69.0161C93.4548 69.0161 92.8657 67.9665 90.6136 66.5421C86.6716 64.0478 81.8894 58.7545 80.1958 55.0108C78.6741 51.647 78.1511 48.7686 79.0618 48.7686C79.3042 48.7686 79.9463 49.7771 80.489 51.01C81.7103 53.784 84.2753 56.7669 86.3757 57.8554L87.9628 58.6784L87.6014 56.5962C87.0462 53.4003 83.9128 45.9684 81.7365 42.6856C79.7301 39.6577 75.6576 36.1434 72.9703 35.1195C70.8263 34.302 70.4643 34.3802 69.9396 35.7718ZM116.826 35.8709C112.412 38.1961 109.69 41.7826 105.351 50.9903C104.785 52.1893 103.594 58.1115 103.863 58.3812C104.551 59.0708 108.694 54.9643 110.235 52.0662C112.171 48.426 113.158 47.8126 112.678 50.5471C111.842 55.2987 106.012 63.3479 101.283 66.2773C100.289 66.8929 99.3246 67.7925 99.139 68.2768C98.6465 69.5634 101.417 68.9029 106.367 66.5531C117.222 61.4003 123.513 50.0272 121.955 38.3712C121.393 34.1657 120.702 33.8292 116.826 35.8709ZM64.7004 79.4103C64.5159 79.7096 63.0297 79.9236 61.3978 79.8858C58.1328 79.8103 57.2249 80.3033 56.2399 82.6865C55.6972 83.9993 55.7338 84.5887 56.4474 86.0213C56.9366 87.0053 57.1714 88.329 56.9863 89.0672C56.5468 90.8217 57.6387 91.9982 59.7145 92.0075C62.7283 92.0206 63.9524 92.5766 63.7711 93.8495C63.6385 94.782 63.1684 95.0419 61.3754 95.1738C59.8669 95.2843 58.9163 95.0627 58.4419 94.4898C58.0559 94.023 57.3936 93.6415 56.9705 93.6415C55.7316 93.6415 55.4756 95.2334 56.5271 96.3979C57.292 97.2456 58.2115 97.4722 60.8873 97.4722C64.9494 97.4722 67.1551 96.1397 67.1551 93.6864C67.1551 91.5703 65.598 90.3811 62.3161 89.9915C60.7737 89.8082 59.5114 89.4727 59.5114 89.2462C59.5114 88.6825 60.9637 88.1692 62.5591 88.1692C65.2355 88.1692 67.2217 84.077 65.4211 82.2723C64.9286 81.7787 64.992 81.3918 65.6941 80.6147C66.1975 80.0571 66.6091 79.4354 66.6091 79.2335C66.6091 78.6605 65.0749 78.8023 64.7004 79.4103ZM71.4481 80.2694C70.6674 80.6793 69.6278 81.8613 69.1376 82.8961C65.8404 89.8613 73.5409 96.5315 78.3149 90.8447C79.4374 89.5078 79.7126 88.5972 79.7126 86.2205C79.7126 83.7443 79.4674 83.0012 78.2112 81.6648C76.4389 79.7807 73.5239 79.1788 71.4481 80.2694ZM59.8232 82.4622C58.8175 83.4707 58.7629 84.0311 59.5305 85.4692C60.5843 87.4425 63.3333 86.4274 63.3333 84.065C63.3333 81.8137 61.3667 80.9157 59.8232 82.4622ZM72.6482 83.758C71.3013 85.108 71.0583 88.7165 72.3146 88.7165C72.7503 88.7165 73.3569 88.2858 73.6632 87.7588C73.9695 87.2318 74.2272 87.0594 74.2364 87.3757C74.2452 87.692 73.9858 88.2179 73.6593 88.5452C72.6695 89.5373 73.9749 89.8355 75.2836 88.9167C76.2882 88.2114 76.4646 87.6373 76.3281 85.5195C76.1899 83.376 75.9737 82.9432 74.9686 82.8003C74.3031 82.7051 73.2755 83.1292 72.6482 83.758ZM167.615 130.203V140.563L172.119 140.844C178.777 141.259 181.04 139.777 182.136 134.281C182.582 132.048 181.434 128.238 179.832 126.631C178.451 125.248 176.53 125.121 173.24 126.196C172.108 126.566 172.031 126.409 171.875 123.385L171.71 120.182L169.662 120.013L167.615 119.842V130.203ZM11.7073 121.16C11.5594 121.547 11.5059 126.041 11.5883 131.147L11.7384 140.43H13.9224H16.1063L16.3793 137.42L16.6522 134.41L19.3821 134.116C22.7896 133.749 24.3341 132.908 25.6882 130.681C27.7547 127.284 26.8358 123.508 23.483 121.619C21.8194 120.682 20.4992 120.456 16.697 120.456C13.3529 120.456 11.8984 120.661 11.7073 121.16ZM48.5406 121.81C47.4617 122.519 46.2611 123.868 45.8729 124.807C45.2691 126.268 45.3024 126.813 46.1017 128.59C47.127 130.87 48.938 132.172 51.8678 132.737C54.8979 133.322 56.2356 134.192 56.2356 135.578C56.2356 138.099 51.9911 138.654 47.9946 136.656C45.4967 135.407 45.2292 135.528 45.4198 137.83C45.5847 139.827 45.6698 139.902 48.5772 140.614C55.4526 142.299 61.1494 139.65 61.1494 134.769C61.1494 131.575 59.4934 129.899 55.1649 128.711C51.3436 127.663 50.1255 126.54 51.1072 124.971C51.9153 123.678 55.7753 123.429 57.9729 124.528C60.3544 125.719 60.6034 125.626 60.6034 123.554C60.6034 121.179 59.061 120.445 54.1625 120.488C51.2726 120.513 50.0901 120.792 48.5406 121.81ZM81.6039 121.131C81.4493 121.534 81.3909 126.041 81.4734 131.147L81.6235 140.43L83.9439 140.598L86.2643 140.766V134.168C86.2643 130.539 86.4489 127.571 86.6738 127.572C86.8987 127.573 87.935 129.235 88.9767 131.266C90.0179 133.296 91.6116 136.262 92.5179 137.855C94.1602 140.742 94.1755 140.752 96.6308 140.591L99.0948 140.43V130.58V120.729L96.7951 120.562L94.496 120.395L94.3382 125.443C94.1684 130.894 93.4652 132.109 92.2253 129.096C91.818 128.106 90.5912 125.819 89.4992 124.013C87.5222 120.743 87.5031 120.729 84.699 120.564C82.7286 120.448 81.8004 120.618 81.6039 121.131ZM128.669 120.821C128.468 121.021 128.305 125.577 128.305 130.945V140.703H130.466H132.627L132.786 136.462L132.945 132.221L136.607 132.06L140.269 131.899L140.429 136.164L140.589 140.43H142.773H144.957V130.58V120.729H142.773H140.589L140.427 124.423L140.266 128.117H136.8C132.812 128.117 132.672 127.958 132.672 123.421V120.456H130.853C129.851 120.456 128.869 120.62 128.669 120.821ZM16.5987 125.05C16.4382 125.47 16.3842 126.762 16.4792 127.923C16.6391 129.87 16.7915 130.046 18.4622 130.206C19.458 130.302 20.6248 130.088 21.0555 129.729C22.0066 128.938 22.0896 125.851 21.1838 124.943C20.2737 124.031 16.9591 124.108 16.5987 125.05ZM32.9868 125.911C31.0464 126.698 29.0241 129.621 28.6386 132.197C28.2144 135.036 29.4478 138.093 31.6743 139.721C33.4722 141.035 37.8973 141.529 40.8117 140.741C42.9034 140.176 43.1321 139.948 43.1321 138.43C43.1321 136.928 42.9989 136.789 41.9037 137.149C37.5304 138.587 33.3045 137.649 33.3045 135.239C33.3045 134.277 33.7752 134.163 38.3548 134.021L43.4051 133.863L43.2446 131.674C43.0328 128.786 42.1374 127.101 40.3122 126.155C38.6819 125.31 34.7896 125.18 32.9868 125.911ZM66.2592 126.501C64.1435 127.859 63.1154 130.227 63.1662 133.622C63.2082 136.386 64.4209 139.001 66.1685 140.095C67.9926 141.237 72.153 141.459 74.3653 140.532C76.7255 139.544 78.6206 136.33 78.6206 133.316C78.6206 130.707 76.9226 127.52 74.9031 126.339C72.6493 125.02 68.4414 125.099 66.2592 126.501ZM103.872 125.917C102.674 126.427 102.182 128.314 103.1 128.882C103.35 129.038 104.446 128.89 105.535 128.555C108.154 127.75 111.106 128.543 111.106 130.053C111.106 130.934 110.61 131.188 108.338 131.466C103.796 132.021 102.098 133.45 102.098 136.715C102.098 140.23 105.781 142.219 109.16 140.529C110.102 140.059 110.958 139.916 111.134 140.201C111.304 140.477 112.412 140.703 113.595 140.703H115.747V134.715C115.747 129.187 115.647 128.608 114.441 127.204C113.261 125.829 112.746 125.668 109.118 125.538C106.908 125.459 104.548 125.629 103.872 125.917ZM149.052 131.144C149.052 139.497 150.794 142.029 155.708 140.816C157.002 140.497 159.227 140.372 160.654 140.54L163.247 140.846V133.387V125.928H161.063H158.879V131.414C158.879 136.799 158.854 136.909 157.479 137.434C155.71 138.107 155.837 138.123 154.823 137.108C154.165 136.447 153.965 135.049 153.965 131.088V125.928H151.509H149.052V131.144ZM33.9597 128.774C33.5994 129.135 33.3045 129.874 33.3045 130.415C33.3045 131.232 33.7697 131.401 36.0344 131.401C38.5497 131.401 38.7643 131.298 38.7643 130.091C38.7643 128.201 35.4404 127.29 33.9597 128.774ZM69.0742 128.865C67.6126 129.936 67.2053 135.75 68.5004 137.048C69.653 138.204 71.7271 138.232 72.8491 137.108C74.1666 135.787 74.0131 130.613 72.6149 129.212C71.3318 127.926 70.4703 127.841 69.0742 128.865ZM172.64 129.131C172.138 129.451 171.978 130.762 172.094 133.638C172.251 137.586 172.294 137.698 173.724 137.864C176.022 138.13 177.442 136.321 177.442 133.127C177.442 129.487 175.119 127.555 172.64 129.131ZM108.514 133.981C107.465 134.14 106.911 134.622 106.671 135.581C106.218 137.389 107.008 138.087 109.263 137.87C110.962 137.707 111.119 137.533 111.276 135.642C111.395 134.198 111.233 133.614 110.73 133.672C110.336 133.716 109.339 133.856 108.514 133.981Z" fill="black" fill-opacity="0.606"/>
</svg>
