<svg width="327" height="62" viewBox="0 0 327 62" fill="none" xmlns="http://www.w3.org/2000/svg">
<path d="M76.4375 41.333V20.501H86.41C87.9651 20.501 89.2967 20.7711 90.4048 21.3112C91.5323 21.8513 92.3973 22.6035 92.9999 23.568C93.622 24.5324 93.933 25.6608 93.933 26.9532C93.933 28.2455 93.622 29.3836 92.9999 30.3673C92.3779 31.351 91.5031 32.1226 90.3756 32.682C89.2676 33.2221 87.9457 33.4921 86.41 33.4921H79.9949V30.078H86.1767C87.207 30.078 88.004 29.7983 88.5677 29.2389C89.1509 28.6602 89.4425 27.908 89.4425 26.9821C89.4425 26.0562 89.1509 25.3136 88.5677 24.7542C88.004 24.1949 87.207 23.9152 86.1767 23.9152H80.928V41.333H76.4375Z" fill="white"/>
<path d="M102.578 41.6224C100.926 41.6224 99.4874 41.3041 98.2627 40.6676C97.038 40.0117 96.0855 39.1052 95.4051 37.9478C94.7442 36.7905 94.4137 35.4596 94.4137 33.955C94.4137 32.4312 94.7442 31.1003 95.4051 29.9622C96.0855 28.8049 97.0283 27.908 98.2336 27.2714C99.4388 26.6156 100.838 26.2877 102.433 26.2877C103.968 26.2877 105.3 26.5963 106.427 27.2136C107.555 27.8308 108.43 28.6892 109.052 29.7886C109.674 30.8881 109.985 32.1805 109.985 33.6657C109.985 33.9743 109.975 34.2637 109.956 34.5337C109.936 34.7845 109.907 35.0256 109.868 35.257H96.9797V32.3926H106.34L105.582 32.9134C105.582 31.7175 105.29 30.8399 104.707 30.2805C104.143 29.7018 103.366 29.4125 102.374 29.4125C101.227 29.4125 100.333 29.7983 99.6915 30.5698C99.0695 31.3414 98.7584 32.4987 98.7584 34.0418C98.7584 35.5464 99.0695 36.6651 99.6915 37.3981C100.333 38.1311 101.286 38.4976 102.549 38.4976C103.249 38.4976 103.852 38.3818 104.357 38.1504C104.862 37.9189 105.242 37.5428 105.494 37.022H109.606C109.12 38.4493 108.284 39.5777 107.098 40.4072C105.932 41.2173 104.425 41.6224 102.578 41.6224Z" fill="white"/>
<path d="M118.473 41.6224C116.296 41.6224 114.566 41.1884 113.283 40.3204C112 39.4524 111.3 38.2565 111.183 36.7326H115.091C115.188 37.3885 115.518 37.89 116.082 38.2372C116.665 38.5651 117.462 38.729 118.473 38.729C119.387 38.729 120.048 38.6037 120.456 38.3529C120.884 38.0829 121.097 37.7067 121.097 37.2245C121.097 36.858 120.971 36.5783 120.718 36.3854C120.485 36.1733 120.048 35.9997 119.406 35.8646L117.015 35.3728C115.246 35.0063 113.944 34.4565 113.108 33.7236C112.272 32.9713 111.854 32.0069 111.854 30.8302C111.854 29.4029 112.408 28.2937 113.516 27.5029C114.624 26.6928 116.169 26.2877 118.152 26.2877C120.116 26.2877 121.681 26.6831 122.847 27.474C124.013 28.2455 124.655 29.3257 124.771 30.7145H120.864C120.786 30.213 120.514 29.8369 120.048 29.5861C119.581 29.3161 118.92 29.181 118.065 29.181C117.287 29.181 116.704 29.2968 116.315 29.5282C115.946 29.7404 115.761 30.049 115.761 30.4541C115.761 30.8013 115.917 31.081 116.228 31.2932C116.539 31.4861 117.054 31.6597 117.773 31.814L120.456 32.3637C121.953 32.6723 123.08 33.251 123.838 34.0997C124.616 34.9291 125.005 35.9129 125.005 37.0509C125.005 38.4976 124.431 39.626 123.284 40.4361C122.157 41.2269 120.553 41.6224 118.473 41.6224Z" fill="white"/>
<path d="M134.7 41.6224C133.067 41.6224 131.629 41.3041 130.385 40.6676C129.16 40.0117 128.198 39.1052 127.498 37.9478C126.818 36.7712 126.477 35.421 126.477 33.8972C126.477 32.3733 126.818 31.0424 127.498 29.9044C128.198 28.7663 129.16 27.879 130.385 27.2425C131.629 26.606 133.067 26.2877 134.7 26.2877C136.353 26.2877 137.791 26.606 139.016 27.2425C140.26 27.879 141.222 28.7663 141.903 29.9044C142.583 31.0424 142.923 32.3733 142.923 33.8972C142.923 35.421 142.573 36.7712 141.874 37.9478C141.193 39.1052 140.231 40.0117 138.987 40.6676C137.762 41.3041 136.333 41.6224 134.7 41.6224ZM134.7 38.2082C135.381 38.2082 135.993 38.0346 136.537 37.6874C137.101 37.3402 137.548 36.8484 137.879 36.2118C138.209 35.556 138.374 34.7748 138.374 33.8682C138.374 32.5373 138.015 31.515 137.296 30.8013C136.596 30.0683 135.731 29.7018 134.7 29.7018C133.67 29.7018 132.795 30.0683 132.076 30.8013C131.376 31.5343 131.026 32.5566 131.026 33.8682C131.026 34.7748 131.192 35.556 131.522 36.2118C131.853 36.8484 132.29 37.3402 132.834 37.6874C133.398 38.0346 134.02 38.2082 134.7 38.2082Z" fill="white"/>
<path d="M145.242 41.333V26.577H149.528V30.049H149.616V41.333H145.242ZM155.593 41.333V32.1901C155.593 31.38 155.38 30.7724 154.952 30.3673C154.544 29.9622 153.941 29.7597 153.144 29.7597C152.464 29.7597 151.851 29.914 151.307 30.2226C150.782 30.5313 150.364 30.9556 150.053 31.4957C149.762 32.0358 149.616 32.6723 149.616 33.4053L149.237 29.8465C149.723 28.7663 150.432 27.908 151.365 27.2714C152.318 26.6156 153.484 26.2877 154.864 26.2877C156.517 26.2877 157.78 26.7506 158.655 27.6765C159.53 28.5831 159.967 29.8079 159.967 31.351V41.333H155.593Z" fill="white"/>
<path d="M172.285 41.333C172.169 40.9087 172.081 40.4554 172.023 39.9732C171.984 39.4909 171.965 38.9316 171.965 38.295H171.848V31.3221C171.848 30.7241 171.644 30.2612 171.236 29.9333C170.847 29.5861 170.264 29.4125 169.486 29.4125C168.748 29.4125 168.155 29.5379 167.708 29.7886C167.28 30.0394 166.998 30.4059 166.862 30.8881H162.692C162.887 29.5572 163.577 28.4577 164.762 27.5897C165.948 26.7217 167.571 26.2877 169.632 26.2877C171.77 26.2877 173.403 26.7603 174.531 27.7054C175.658 28.6506 176.222 30.0105 176.222 31.785V38.295C176.222 38.7773 176.251 39.2691 176.309 39.7706C176.387 40.2529 176.504 40.7737 176.659 41.333H172.285ZM167.095 41.6224C165.618 41.6224 164.442 41.2559 163.567 40.5229C162.692 39.7706 162.255 38.7773 162.255 37.5428C162.255 36.1733 162.77 35.0738 163.8 34.2444C164.85 33.3957 166.308 32.8459 168.174 32.5952L172.519 31.9876V34.5048L168.903 35.0545C168.125 35.1702 167.552 35.3824 167.183 35.691C166.813 35.9997 166.629 36.424 166.629 36.9641C166.629 37.4463 166.804 37.8128 167.153 38.0636C167.503 38.3143 167.97 38.4397 168.553 38.4397C169.467 38.4397 170.244 38.1986 170.886 37.7164C171.527 37.2149 171.848 36.6362 171.848 35.9804L172.256 38.295C171.829 39.3945 171.177 40.2239 170.303 40.7833C169.428 41.3427 168.359 41.6224 167.095 41.6224Z" fill="white"/>
<path d="M184.845 41.333V20.501H189.335V41.333H184.845ZM198.433 41.333V20.501H202.924V41.333H198.433ZM186.944 28.776H200.474V32.1901H186.944V28.776Z" fill="white"/>
<path d="M210.934 41.6224C209.885 41.6224 208.981 41.4005 208.223 40.9569C207.484 40.494 206.92 39.8864 206.531 39.1341C206.143 38.3625 205.948 37.5042 205.948 36.559V26.577H210.322V35.72C210.322 36.5301 210.526 37.1377 210.934 37.5428C211.343 37.9478 211.916 38.1504 212.655 38.1504C213.316 38.1504 213.899 37.9961 214.404 37.6874C214.91 37.3788 215.308 36.9545 215.6 36.4144C215.911 35.855 216.066 35.2185 216.066 34.5048L216.446 38.0636C215.96 39.1245 215.25 39.9828 214.317 40.6386C213.384 41.2945 212.256 41.6224 210.934 41.6224ZM216.154 41.333V37.861H216.066V26.577H220.44V41.333H216.154Z" fill="white"/>
<path d="M233.018 41.6224C231.599 41.6224 230.442 41.2945 229.548 40.6386C228.673 39.9828 228.158 39.0859 228.002 37.9478L228.235 37.9189V41.333H223.949V20.501H228.323V29.8465L228.061 29.7886C228.274 28.7085 228.838 27.8597 229.752 27.2425C230.685 26.606 231.851 26.2877 233.251 26.2877C234.592 26.2877 235.749 26.606 236.721 27.2425C237.712 27.8597 238.47 28.7374 238.995 29.8754C239.54 31.0135 239.812 32.3541 239.812 33.8972C239.812 35.4596 239.53 36.8194 238.966 37.9768C238.402 39.1341 237.615 40.031 236.604 40.6676C235.593 41.3041 234.398 41.6224 233.018 41.6224ZM231.793 38.1504C232.823 38.1504 233.659 37.7839 234.301 37.0509C234.942 36.3179 235.263 35.2763 235.263 33.9261C235.263 32.5759 234.932 31.5439 234.271 30.8302C233.63 30.1165 232.784 29.7597 231.735 29.7597C230.724 29.7597 229.888 30.1262 229.227 30.8592C228.585 31.5729 228.265 32.6048 228.265 33.955C228.265 35.3053 228.585 36.3469 229.227 37.0798C229.888 37.7935 230.743 38.1504 231.793 38.1504Z" fill="white"/>
<path d="M250.261 41.333V37.861H255.568C257.084 37.861 258.367 37.5621 259.417 36.9641C260.486 36.3469 261.293 35.5078 261.837 34.4469C262.401 33.386 262.683 32.1708 262.683 30.8013C262.683 29.4511 262.411 28.2648 261.867 27.2425C261.322 26.2202 260.516 25.4197 259.446 24.841C258.397 24.2624 257.104 23.973 255.568 23.973H250.349V20.501H255.568C257.92 20.501 259.971 20.9254 261.721 21.7741C263.47 22.6035 264.821 23.7994 265.774 25.3618C266.746 26.9049 267.232 28.7374 267.232 30.8592C267.232 32.9809 266.746 34.8327 265.774 36.4144C264.802 37.9768 263.441 39.192 261.692 40.06C259.961 40.9087 257.93 41.333 255.597 41.333H250.261ZM247.52 41.333V20.501H252.011V41.333H247.52Z" fill="white"/>
<path d="M269.624 41.333V26.577H273.998V41.333H269.624ZM269.478 24.6096V19.9224H274.144V24.6096H269.478Z" fill="white"/>
<path d="M284.194 47.5537C282.133 47.5537 280.452 47.1197 279.149 46.2517C277.866 45.3837 277.108 44.2071 276.875 42.7218H281.015C281.171 43.0883 281.501 43.368 282.007 43.5609C282.532 43.7538 283.193 43.8502 283.99 43.8502C285.311 43.8502 286.274 43.5995 286.876 43.098C287.479 42.5965 287.78 41.8153 287.78 40.7544V37.5428L288.013 37.6006C287.819 38.6808 287.255 39.5392 286.322 40.1757C285.389 40.7929 284.233 41.1016 282.852 41.1016C281.53 41.1016 280.374 40.8026 279.382 40.2046C278.41 39.5874 277.652 38.729 277.108 37.6296C276.564 36.5301 276.291 35.2377 276.291 33.7525C276.291 32.248 276.573 30.9363 277.137 29.8176C277.701 28.6988 278.488 27.8308 279.499 27.2136C280.529 26.5963 281.725 26.2877 283.086 26.2877C284.485 26.2877 285.622 26.6156 286.497 27.2714C287.391 27.9273 287.916 28.8242 288.072 29.9622L287.868 29.9912V26.577H292.154V40.6965C292.154 42.8183 291.445 44.4868 290.025 45.702C288.606 46.9365 286.662 47.5537 284.194 47.5537ZM284.369 37.7742C285.399 37.7742 286.235 37.427 286.876 36.7326C287.518 36.0189 287.839 35.0063 287.839 33.6946C287.839 32.383 287.508 31.38 286.847 30.6856C286.206 29.9719 285.36 29.615 284.31 29.615C283.299 29.615 282.464 29.9719 281.803 30.6856C281.161 31.3993 280.84 32.4119 280.84 33.7236C280.84 35.0352 281.161 36.0382 281.803 36.7326C282.464 37.427 283.319 37.7742 284.369 37.7742Z" fill="white"/>
<path d="M295.651 41.333V26.577H300.025V41.333H295.651ZM295.505 24.6096V19.9224H300.171V24.6096H295.505Z" fill="white"/>
<path d="M47.2657 27.8693C46.4603 28.6795 45.8436 29.6575 45.4594 30.7331C45.0752 31.809 44.933 32.9563 45.0429 34.0934L45.0047 34.0552C45.1177 35.3937 44.9371 36.7406 44.4757 38.0022C44.0144 39.2636 43.2834 40.4092 42.3337 41.3591C41.3838 42.3088 40.2382 43.04 38.9766 43.5011C37.7152 43.9625 36.3681 44.1431 35.0298 44.03L35.0681 44.0683C33.4671 43.9193 31.8591 44.2676 30.4631 45.066C29.0674 45.8643 27.9518 47.0737 27.2686 48.5293C26.5854 49.985 26.3676 51.6157 26.6451 53.1997C26.9229 54.7835 27.6821 56.2432 28.8197 57.3796C29.9572 58.5161 31.4175 59.2741 33.0015 59.5501C34.5857 59.8264 36.2162 59.6071 37.6712 58.9226C39.1262 58.2379 40.3345 57.1214 41.1316 55.7249C41.9287 54.3283 42.2757 52.7201 42.1252 51.1191L42.1656 51.1573C42.0526 49.819 42.233 48.472 42.6943 47.2103C43.1557 45.9489 43.8869 44.8033 44.8366 43.8534C45.7864 42.9038 46.932 42.1725 48.1935 41.7114C49.4551 41.2501 50.8019 41.0694 52.1405 41.1825L52.1001 41.1443C53.4078 41.2618 54.7243 41.0473 55.9273 40.5208C57.13 39.9942 58.1806 39.1724 58.9813 38.1318C59.782 37.0912 60.3073 35.8651 60.5079 34.5675C60.7088 33.2698 60.5787 31.9425 60.1299 30.7083C59.6811 29.4743 58.928 28.3735 57.9405 27.508C56.953 26.6425 55.763 26.0402 54.4808 25.7572C53.1985 25.4741 51.8655 25.5192 50.6054 25.8883C49.3452 26.2576 48.1988 26.9389 47.272 27.8693H47.2657Z" fill="white"/>
<path opacity="0.65" d="M31.5872 39.0573L31.5469 39.019C32.6844 39.1336 33.8332 38.994 34.9104 38.6102C35.9873 38.2264 36.9657 37.6082 37.7745 36.8001C38.583 35.9919 39.2023 35.014 39.5867 33.9373C39.9713 32.8605 40.1118 31.7119 39.9981 30.5742L40.0384 30.6125C39.9254 29.2739 40.106 27.9271 40.5672 26.6654C41.0285 25.404 41.7597 24.2584 42.7094 23.3085C43.6593 22.3589 44.8049 21.6277 46.0663 21.1665C47.3279 20.7051 48.6747 20.5246 50.0133 20.6376L49.9729 20.5994C51.5741 20.7498 53.1825 20.4025 54.5791 19.6051C55.9759 18.8076 57.0924 17.5988 57.7766 16.1434C58.4609 14.6881 58.6795 13.057 58.4029 11.4728C58.1262 9.8886 57.3676 8.42833 56.2302 7.29115C55.0931 6.15399 53.6328 5.39527 52.0486 5.11855C50.4644 4.84181 48.8335 5.06049 47.3781 5.74479C45.9226 6.42907 44.7139 7.54566 43.9164 8.94225C43.1189 10.3388 42.7716 11.9474 42.9221 13.5485L42.8839 13.5082C42.9971 14.8467 42.8169 16.1938 42.3558 17.4555C41.8947 18.7172 41.1634 19.863 40.2138 20.8129C39.2639 21.7626 38.1181 22.4938 36.8564 22.9549C35.5946 23.4161 34.2476 23.5963 32.909 23.483L32.9473 23.5234C31.8097 23.4088 30.6607 23.5485 29.5838 23.9322C28.5068 24.3158 27.5285 24.9342 26.7197 25.7423C25.9109 26.5505 25.2919 27.5284 24.9072 28.6052C24.5228 29.6819 24.3824 30.8305 24.4961 31.9682L24.4578 31.93C24.5704 33.2683 24.3896 34.6151 23.9283 35.8766C23.4667 37.1377 22.7357 38.2833 21.786 39.233C20.8363 40.1827 19.6908 40.9137 18.4295 41.3753C17.1681 41.8366 15.8213 42.0174 14.483 41.9048L14.5212 41.9431C12.9201 41.7926 11.3115 42.1398 9.9149 42.9374C8.51834 43.7349 7.40174 44.9436 6.71747 46.399C6.03317 47.8544 5.81446 49.4854 6.0912 51.0696C6.36794 52.6538 7.12666 54.1141 8.26382 55.2512C9.401 56.3885 10.8613 57.1471 12.4455 57.4238C14.0297 57.7005 15.6607 57.4818 17.1161 56.7976C18.5714 56.1133 19.7803 54.9968 20.5777 53.6003C21.3753 52.2035 21.7225 50.5951 21.572 48.9939L21.6124 49.0321C21.4994 47.6936 21.68 46.3467 22.1413 45.0851C22.6025 43.8237 23.3337 42.6781 24.2833 41.7282C25.2332 40.7785 26.3788 40.0473 27.6402 39.5862C28.9019 39.1249 30.2487 38.9442 31.5872 39.0573Z" fill="white"/>
<path d="M17.3476 34.7924C18.153 33.9823 18.7696 33.0044 19.1535 31.9285C19.5374 30.8526 19.679 29.7051 19.5682 28.5682L19.6086 28.6064C19.4955 27.2677 19.6761 25.9202 20.1376 24.6583C20.5992 23.3965 21.3307 22.2507 22.281 21.3008C23.2313 20.351 24.3774 19.62 25.6394 19.159C26.9015 18.6979 28.2489 18.5179 29.5877 18.6316L29.5473 18.5933C31.1479 18.7433 32.7559 18.3959 34.1518 17.5985C35.5477 16.8011 36.6636 15.5925 37.3476 14.1377C38.0315 12.6827 38.2499 11.0523 37.9732 9.46869C37.6966 7.88506 36.9379 6.42534 35.8013 5.28858C34.6646 4.15183 33.2047 3.39336 31.6211 3.11664C30.0376 2.8399 28.407 3.0584 26.9522 3.74227C25.4972 4.42614 24.2887 5.54214 23.4914 6.93807C22.6939 8.33399 22.3465 9.94191 22.4965 11.5425L22.4583 11.5043C22.5713 12.8427 22.3907 14.1897 21.9293 15.4512C21.468 16.7127 20.737 17.8583 19.7872 18.8081C18.8375 19.7579 17.6918 20.489 16.4303 20.9502C15.1688 21.4115 13.8219 21.5922 12.4834 21.4791L12.5217 21.5174C11.2139 21.4001 9.8976 21.6149 8.69489 22.1417C7.49217 22.6685 6.44188 23.4904 5.64136 24.5313C4.84084 25.5719 4.31601 26.798 4.11545 28.0956C3.91491 29.3933 4.04515 30.7206 4.49411 31.9544C4.94306 33.1884 5.69623 34.2889 6.68379 35.1542C7.67135 36.0198 8.86136 36.6218 10.1436 36.9048C11.4257 37.1877 12.7586 37.1424 14.0187 36.7733C15.2787 36.404 16.4252 35.7227 17.3518 34.7924H17.3476Z" fill="white"/>
</svg>
