<svg width="30" height="30" viewBox="0 0 30 30" fill="none" xmlns="http://www.w3.org/2000/svg">
<g clip-path="url(#clip0_661_9275)">
<g clip-path="url(#clip1_661_9275)">
<path fill-rule="evenodd" clip-rule="evenodd" d="M28.6115 8.03041C28.6115 8.31457 28.4986 8.5871 28.2977 8.78803C28.0968 8.98896 27.8243 9.10184 27.5401 9.10184H9.95368C9.66951 9.10184 9.39699 8.98896 9.19606 8.78803C8.99513 8.5871 8.88225 8.31457 8.88225 8.03041C8.88225 7.74625 8.99513 7.47373 9.19606 7.2728C9.39699 7.07187 9.66951 6.95898 9.95368 6.95898H27.5401C27.8243 6.95898 28.0968 7.07187 28.2977 7.2728C28.4986 7.47373 28.6115 7.74625 28.6115 8.03041ZM28.6115 15.554C28.6115 15.8381 28.4986 16.1107 28.2977 16.3116C28.0968 16.5125 27.8243 16.6254 27.5401 16.6254H4.37367C4.08951 16.6254 3.81699 16.5125 3.61606 16.3116C3.41513 16.1107 3.30225 15.8381 3.30225 15.554C3.30225 15.2698 3.41513 14.9973 3.61606 14.7964C3.81699 14.5954 4.08951 14.4826 4.37367 14.4826H27.5401C27.8243 14.4826 28.0968 14.5954 28.2977 14.7964C28.4986 14.9973 28.6115 15.2698 28.6115 15.554ZM28.6115 22.9768C28.6115 23.261 28.4986 23.5335 28.2977 23.7345C28.0968 23.9354 27.8243 24.0483 27.5401 24.0483H9.95368C9.66951 24.0483 9.39699 23.9354 9.19606 23.7345C8.99513 23.5335 8.88225 23.261 8.88225 22.9768C8.88225 22.6927 8.99513 22.4202 9.19606 22.2192C9.39699 22.0183 9.66951 21.9054 9.95368 21.9054H27.5401C27.8243 21.9054 28.0968 22.0183 28.2977 22.2192C28.4986 22.4202 28.6115 22.6927 28.6115 22.9768Z" fill="#FAFFF7"/>
</g>
</g>
<defs>
<clipPath id="clip0_661_9275">
<rect width="30" height="30" fill="white"/>
</clipPath>
<clipPath id="clip1_661_9275">
<rect width="30" height="18.2143" fill="white" transform="translate(0 5.89307)"/>
</clipPath>
</defs>
</svg>
