<svg width="36"
     height="36"
     viewBox="0 0 36 36"
     fill="none"
     xmlns="http://www.w3.org/2000/svg">
  <path d="M0 12C0 5.37258 5.37258 0 12 0H24C30.6274 0 36 5.37258 36 12V24C36 30.6274 30.6274 36 24 36H12C5.37258 36 0 30.6274 0 24V12Z"
        fill="#52B788"
        fill-opacity="0.125" />
  <path d="M22.6274 21.9584C21.4553 20.7865 19.8657 20.1281 18.2082 20.1281C16.5507 20.1281 14.9611 20.7865 13.7891 21.9584M22.9999 11.1701C21.8515 10.5071 20.4868 10.3274 19.2059 10.6706C17.925 11.0138 16.833 11.8517 16.1699 13.0001L24.8299 18.0001C25.4929 16.8517 25.6726 15.487 25.3294 14.2061C24.9862 12.9252 24.1483 11.8332 22.9999 11.1701Z"
        stroke="#2A9B4C"
        stroke-width="1.5"
        stroke-linecap="round"
        stroke-linejoin="round" />
  <path d="M21.9433 16.3334C23.325 13.9417 23.7975 11.6301 23 11.1701C22.2025 10.7101 20.4375 12.2751 19.0567 14.6667M20.5 15.5001L18 19.8301M10.5 24.0417C10.7594 23.9128 11.0437 23.8417 11.3333 23.8334C11.6579 23.8266 11.9793 23.8989 12.2696 24.0441C12.56 24.1893 12.8107 24.403 13 24.6667C13.1893 24.9305 13.44 25.1442 13.7304 25.2894C14.0207 25.4345 14.3421 25.5069 14.6667 25.5001C14.9912 25.5069 15.3126 25.4345 15.603 25.2894C15.8934 25.1442 16.144 24.9305 16.3333 24.6667C16.5226 24.403 16.7733 24.1893 17.0637 24.0441C17.3541 23.8989 17.6754 23.8266 18 23.8334C18.3246 23.8266 18.6459 23.8989 18.9363 24.0441C19.2267 24.1893 19.4774 24.403 19.6667 24.6667C19.856 24.9305 20.1066 25.1442 20.397 25.2894C20.6874 25.4345 21.0088 25.5069 21.3333 25.5001C21.6579 25.5069 21.9793 25.4345 22.2696 25.2894C22.56 25.1442 22.8107 24.9305 23 24.6667C23.1893 24.403 23.44 24.1893 23.7304 24.0441C24.0207 23.8989 24.3421 23.8266 24.6667 23.8334C24.9563 23.8417 25.2406 23.9128 25.5 24.0417"
        stroke="#2A9B4C"
        stroke-width="1.5"
        stroke-linecap="round"
        stroke-linejoin="round" />
</svg>