<svg width="18" height="18" viewBox="0 0 18 18" fill="none" xmlns="http://www.w3.org/2000/svg">
<path d="M14.443 11.1847C13.7686 11.5946 12.9941 11.8102 12.2049 11.8076C11.5438 11.8024 10.8901 11.6672 10.2812 11.4097C9.81185 12.0722 9.56068 12.8646 9.56259 13.6765V15.75C9.56276 15.8272 9.54707 15.9035 9.5165 15.9743C9.48593 16.0451 9.44113 16.1088 9.38489 16.1616C9.32864 16.2143 9.26215 16.2549 9.18954 16.2809C9.11694 16.3069 9.03977 16.3177 8.96282 16.3125C8.81824 16.3 8.68376 16.2332 8.58635 16.1256C8.48894 16.018 8.4358 15.8776 8.43759 15.7325V14.8578L5.72212 12.1423C5.31845 12.2929 4.89154 12.3717 4.46071 12.375C3.86761 12.3765 3.28561 12.2142 2.77884 11.9061C1.24673 10.9751 0.421962 8.8327 0.581572 6.17278C0.589608 6.03517 0.647895 5.9053 0.745367 5.80782C0.842839 5.71035 0.97271 5.65206 1.11032 5.64403C3.77024 5.48723 5.91267 6.30918 6.84079 7.84129C7.20544 8.44182 7.36464 9.14475 7.29431 9.84379C7.28993 9.89795 7.26997 9.94969 7.23682 9.99274C7.20367 10.0358 7.15876 10.0683 7.10751 10.0864C7.05627 10.1045 7.00089 10.1073 6.94807 10.0946C6.89524 10.0818 6.84724 10.0541 6.80985 10.0147L5.45985 8.60137C5.35351 8.50034 5.2119 8.44484 5.06522 8.44672C4.91854 8.4486 4.7784 8.5077 4.67467 8.61142C4.57095 8.71515 4.51184 8.85529 4.50996 9.00197C4.50809 9.14865 4.56358 9.29026 4.66462 9.39661L8.45306 13.2814C8.45728 13.2265 8.4622 13.1717 8.46782 13.1175C8.59083 12.0746 9.05103 11.1004 9.77845 10.343L13.3356 6.58411C13.4411 6.47865 13.5004 6.33559 13.5005 6.18639C13.5006 6.03718 13.4414 5.89407 13.3359 5.78852C13.2305 5.68297 13.0874 5.62364 12.9382 5.62357C12.789 5.62351 12.6459 5.68271 12.5403 5.78817L9.09501 9.43176C9.06052 9.46829 9.01688 9.49492 8.96862 9.50887C8.92036 9.52282 8.86925 9.5236 8.82059 9.51111C8.77193 9.49862 8.7275 9.47333 8.69193 9.43786C8.65635 9.40239 8.63093 9.35804 8.61829 9.30942C8.28501 8.08036 8.43196 6.85692 9.06829 5.80645C10.3241 3.73364 13.2463 2.62411 16.8856 2.83786C17.0232 2.84589 17.1531 2.90418 17.2506 3.00165C17.3481 3.09912 17.4063 3.22899 17.4144 3.36661C17.6253 7.00668 16.5158 9.92887 14.443 11.1847Z" fill="#035925"/>
</svg>
