<svg width="36"
     height="36"
     viewBox="0 0 36 36"
     fill="none"
     xmlns="http://www.w3.org/2000/svg">
  <path d="M0 12C0 5.37258 5.37258 0 12 0H24C30.6274 0 36 5.37258 36 12V24C36 30.6274 30.6274 36 24 36H12C5.37258 36 0 30.6274 0 24V12Z"
        fill="#52B788"
        fill-opacity="0.125" />
  <g clip-path="url(#clip0_1593_9641)">
    <mask id="mask0_1593_9641"
          style="mask-type:luminance"
          maskUnits="userSpaceOnUse"
          x="7"
          y="7"
          width="22"
          height="22">
      <path d="M8 8.00006H27.9999V28H8V8.00006Z"
            fill="white"
            stroke="white"
            stroke-width="1.3" />
    </mask>
    <g mask="url(#mask0_1593_9641)">
      <path d="M19.1719 11.3594H27.414V13.7031H19.1719"
            stroke="#2A9B4C"
            stroke-width="1.3"
            stroke-miterlimit="10" />
      <path d="M16.8281 13.7031H8.58594V11.3594H16.8281"
            stroke="#2A9B4C"
            stroke-width="1.3"
            stroke-miterlimit="10" />
      <path d="M9.17188 22.2969H27.414V24.6406H9.17188"
            stroke="#2A9B4C"
            stroke-width="1.3"
            stroke-miterlimit="10" />
      <path d="M16.8281 24.6406H8.58594V22.2969H16.8281"
            stroke="#2A9B4C"
            stroke-width="1.3"
            stroke-miterlimit="10" />
      <path d="M16.8281 28V8.58596H19.1719V28"
            stroke="#2A9B4C"
            stroke-width="1.3"
            stroke-miterlimit="10" />
    </g>
    <path d="M11.3594 22.2969V13.7032"
          stroke="#2A9B4C"
          stroke-width="1.3"
          stroke-miterlimit="10" />
    <mask id="mask1_1593_9641"
          style="mask-type:luminance"
          maskUnits="userSpaceOnUse"
          x="7"
          y="7"
          width="22"
          height="22">
      <path d="M8 8.00006H27.9999V28H8V8.00006Z"
            fill="white"
            stroke="white"
            stroke-width="1.3" />
    </mask>
    <g mask="url(#mask1_1593_9641)">
      <path d="M13.7031 24.6406V27.4141H11.3594V24.6406"
            stroke="#2A9B4C"
            stroke-width="1.3"
            stroke-miterlimit="10" />
    </g>
    <path d="M13.7031 13.7032V22.2969"
          stroke="#2A9B4C"
          stroke-width="1.3"
          stroke-miterlimit="10" />
    <mask id="mask2_1593_9641"
          style="mask-type:luminance"
          maskUnits="userSpaceOnUse"
          x="7"
          y="7"
          width="22"
          height="22">
      <path d="M8 8.00006H27.9999V28H8V8.00006Z"
            fill="white"
            stroke="white"
            stroke-width="1.3" />
    </mask>
    <g mask="url(#mask2_1593_9641)">
      <path d="M11.3594 11.3594V8.58595H13.7031V11.3594"
            stroke="#2A9B4C"
            stroke-width="1.3"
            stroke-miterlimit="10" />
    </g>
    <path d="M22.2969 22.2969V13.7032"
          stroke="#2A9B4C"
          stroke-width="1.3"
          stroke-miterlimit="10" />
    <mask id="mask3_1593_9641"
          style="mask-type:luminance"
          maskUnits="userSpaceOnUse"
          x="7"
          y="7"
          width="22"
          height="22">
      <path d="M8 8.00006H27.9999V28H8V8.00006Z"
            fill="white"
            stroke="white"
            stroke-width="1.3" />
    </mask>
    <g mask="url(#mask3_1593_9641)">
      <path d="M24.6406 24.6406V27.4141H22.2969V24.6406"
            stroke="#2A9B4C"
            stroke-width="1.3"
            stroke-miterlimit="10" />
    </g>
    <path d="M24.6406 13.7032V22.2969"
          stroke="#2A9B4C"
          stroke-width="1.3"
          stroke-miterlimit="10" />
    <mask id="mask4_1593_9641"
          style="mask-type:luminance"
          maskUnits="userSpaceOnUse"
          x="7"
          y="7"
          width="22"
          height="22">
      <path d="M8 8.00006H27.9999V28H8V8.00006Z"
            fill="white"
            stroke="white"
            stroke-width="1.3" />
    </mask>
    <g mask="url(#mask4_1593_9641)">
      <path d="M22.2969 11.3594V8.58595H24.6406V11.3594"
            stroke="#2A9B4C"
            stroke-width="1.3"
            stroke-miterlimit="10" />
    </g>
  </g>
  <defs>
    <clipPath id="clip0_1593_9641">
      <rect width="20"
            height="20"
            fill="white"
            transform="translate(8 8)" />
    </clipPath>
  </defs>
</svg>