<svg width="24" height="24" viewBox="0 0 24 24" fill="none" xmlns="http://www.w3.org/2000/svg">
<path d="M14.3044 13.6153L16.4606 14.6916C16.3584 15.2023 16.0822 15.6617 15.679 15.9915C15.2759 16.3213 14.7708 16.501 14.25 16.5C12.4604 16.498 10.7447 15.7862 9.47922 14.5208C8.21378 13.2554 7.50198 11.5396 7.5 9.75003C7.49985 9.22983 7.67997 8.72565 8.00968 8.32329C8.3394 7.92093 8.79835 7.64524 9.30844 7.54315L10.3847 9.6994L9.46875 11.0625C9.40031 11.1652 9.35825 11.2832 9.34631 11.406C9.33437 11.5288 9.35292 11.6527 9.40031 11.7666C9.93692 13.042 10.9515 14.0565 12.2269 14.5932C12.3411 14.6426 12.466 14.6629 12.59 14.6521C12.7141 14.6413 12.8335 14.5998 12.9375 14.5313L14.3044 13.6153ZM21.75 12C21.7504 13.6833 21.3149 15.3381 20.486 16.8032C19.6572 18.2683 18.4631 19.4938 17.02 20.3605C15.577 21.2272 13.9341 21.7055 12.2514 21.7489C10.5686 21.7923 8.9033 21.3993 7.4175 20.6082L4.22531 21.6722C3.96102 21.7604 3.6774 21.7731 3.40624 21.7092C3.13509 21.6452 2.88711 21.5069 2.69011 21.3099C2.49311 21.1129 2.35486 20.8649 2.29087 20.5938C2.22688 20.3226 2.23967 20.039 2.32781 19.7747L3.39187 16.5825C2.69639 15.2749 2.30793 13.8261 2.256 12.3459C2.20406 10.8658 2.49001 9.39328 3.09213 8.04015C3.69425 6.68703 4.59672 5.48885 5.73105 4.53658C6.86537 3.58431 8.20173 2.90298 9.63869 2.54429C11.0756 2.1856 12.5754 2.15899 14.0242 2.46647C15.473 2.77395 16.8327 3.40745 18.0001 4.31888C19.1675 5.2303 20.1119 6.3957 20.7616 7.72662C21.4114 9.05753 21.7494 10.519 21.75 12ZM18 14.25C18.0001 14.1107 17.9614 13.9741 17.8882 13.8555C17.815 13.737 17.7102 13.6411 17.5856 13.5788L14.5856 12.0788C14.4675 12.0199 14.336 11.9933 14.2043 12.0015C14.0726 12.0097 13.9455 12.0526 13.8356 12.1257L12.4584 13.0444C11.8262 12.6969 11.306 12.1766 10.9584 11.5444L11.8772 10.1672C11.9503 10.0574 11.9931 9.93019 12.0013 9.79851C12.0096 9.66683 11.9829 9.53531 11.9241 9.41722L10.4241 6.41722C10.3619 6.29166 10.2658 6.18603 10.1467 6.11229C10.0275 6.03855 9.89011 5.99967 9.75 6.00003C8.75544 6.00003 7.80161 6.39512 7.09835 7.09838C6.39509 7.80164 6 8.75547 6 9.75003C6.00248 11.9373 6.87247 14.0343 8.41911 15.5809C9.96575 17.1276 12.0627 17.9975 14.25 18C14.7425 18 15.2301 17.903 15.6851 17.7146C16.14 17.5261 16.5534 17.2499 16.9017 16.9017C17.2499 16.5535 17.5261 16.1401 17.7145 15.6851C17.903 15.2301 18 14.7425 18 14.25Z" fill="#024C26"/>
</svg>
