<svg width="17" height="17" viewBox="0 0 17 17" fill="none" xmlns="http://www.w3.org/2000/svg">
<g clip-path="url(#clip0_367_13264)">
<path d="M8.94328 2.732C9.29928 2.733 10.1903 2.742 11.1363 2.78L11.4723 2.795C12.4253 2.84 13.3773 2.917 13.8493 3.048C14.4793 3.225 14.9743 3.742 15.1413 4.396C15.4083 5.436 15.4413 7.464 15.4453 7.956L15.4463 8.057V8.173C15.4413 8.664 15.4083 10.693 15.1413 11.733C15.0624 12.0508 14.9016 12.3425 14.6749 12.5788C14.4482 12.8151 14.1636 12.9879 13.8493 13.08C13.3773 13.212 12.4253 13.289 11.4723 13.334L11.1363 13.348C10.1903 13.386 9.29928 13.395 8.94328 13.397H8.61628C7.86328 13.393 4.71228 13.359 3.71028 13.08C3.3957 12.988 3.11075 12.8151 2.88386 12.5786C2.65698 12.342 2.4961 12.0501 2.41728 11.732C2.15128 10.692 2.11728 8.664 2.11328 8.173V7.955C2.11728 7.465 2.15128 5.435 2.41728 4.396C2.4961 4.07786 2.65698 3.78596 2.88386 3.54943C3.11075 3.31289 3.3957 3.14 3.71028 3.048C4.71228 2.77 7.86328 2.736 8.61628 2.731H8.94328V2.732ZM7.44628 5.73V10.397L11.4463 8.063L7.44628 5.73Z" fill="#035925"/>
</g>
<defs>
<clipPath id="clip0_367_13264">
<rect width="16" height="16" fill="white" transform="translate(0.780273 0.0650024)"/>
</clipPath>
</defs>
</svg>
